<mxfile host="app.diagrams.net" modified="2020-09-11T10:25:07.910Z" agent="5.0 (Windows NT 10.0; Win64; x64) AppleWebKit/537.36 (KHTML, like Gecko) Chrome/85.0.4183.102 Safari/537.36" etag="KrG4mBG2ozXPROtNu53_" version="13.6.6" type="github">
  <diagram id="C7R2pE7btU6PU374r6xX" name="Page-1">
    <mxGraphModel dx="1038" dy="580" grid="1" gridSize="10" guides="1" tooltips="1" connect="1" arrows="1" fold="1" page="1" pageScale="1" pageWidth="827" pageHeight="1169" math="0" shadow="0">
      <root>
        <mxCell id="0" />
        <mxCell id="1" parent="0" />
        <mxCell id="Gz2HUSbGCzD6odtx0d7f-22" value="Người bán hàng" style="shape=umlActor;verticalLabelPosition=bottom;verticalAlign=top;html=1;outlineConnect=0;" vertex="1" parent="1">
          <mxGeometry x="80" y="30" width="30" height="60" as="geometry" />
        </mxCell>
        <mxCell id="Gz2HUSbGCzD6odtx0d7f-24" value="Hệ thống" style="rounded=0;whiteSpace=wrap;html=1;" vertex="1" parent="1">
          <mxGeometry x="210" y="50" width="100" height="40" as="geometry" />
        </mxCell>
        <mxCell id="Gz2HUSbGCzD6odtx0d7f-25" value="Phiếu bán hàng" style="rounded=0;whiteSpace=wrap;html=1;" vertex="1" parent="1">
          <mxGeometry x="414" y="50" width="106" height="40" as="geometry" />
        </mxCell>
        <mxCell id="Gz2HUSbGCzD6odtx0d7f-26" value="Thanh toán" style="rounded=0;whiteSpace=wrap;html=1;" vertex="1" parent="1">
          <mxGeometry x="630" y="50" width="100" height="40" as="geometry" />
        </mxCell>
        <mxCell id="Gz2HUSbGCzD6odtx0d7f-27" value="" style="rounded=0;whiteSpace=wrap;html=1;rotation=90;" vertex="1" parent="1">
          <mxGeometry x="200" y="170" width="100" height="10" as="geometry" />
        </mxCell>
        <mxCell id="Gz2HUSbGCzD6odtx0d7f-29" value="" style="endArrow=none;dashed=1;html=1;" edge="1" parent="1">
          <mxGeometry width="50" height="50" relative="1" as="geometry">
            <mxPoint x="30" y="320" as="sourcePoint" />
            <mxPoint x="30" y="120" as="targetPoint" />
          </mxGeometry>
        </mxCell>
        <mxCell id="Gz2HUSbGCzD6odtx0d7f-30" value="" style="endArrow=classic;html=1;entryX=0;entryY=1;entryDx=0;entryDy=0;" edge="1" parent="1" target="Gz2HUSbGCzD6odtx0d7f-27">
          <mxGeometry width="50" height="50" relative="1" as="geometry">
            <mxPoint x="30" y="125" as="sourcePoint" />
            <mxPoint x="440" y="270" as="targetPoint" />
            <Array as="points" />
          </mxGeometry>
        </mxCell>
        <mxCell id="Gz2HUSbGCzD6odtx0d7f-31" value="Nhập số lượng" style="text;html=1;align=center;verticalAlign=middle;resizable=0;points=[];autosize=1;" vertex="1" parent="1">
          <mxGeometry x="70" y="130" width="100" height="20" as="geometry" />
        </mxCell>
        <mxCell id="Gz2HUSbGCzD6odtx0d7f-32" value="" style="rounded=0;whiteSpace=wrap;html=1;rotation=90;" vertex="1" parent="1">
          <mxGeometry x="630" y="170" width="100" height="10" as="geometry" />
        </mxCell>
        <mxCell id="Gz2HUSbGCzD6odtx0d7f-33" value="" style="endArrow=none;dashed=1;html=1;entryX=0.408;entryY=1.085;entryDx=0;entryDy=0;entryPerimeter=0;" edge="1" parent="1" target="Gz2HUSbGCzD6odtx0d7f-24">
          <mxGeometry width="50" height="50" relative="1" as="geometry">
            <mxPoint x="251" y="330" as="sourcePoint" />
            <mxPoint x="440" y="270" as="targetPoint" />
          </mxGeometry>
        </mxCell>
        <mxCell id="Gz2HUSbGCzD6odtx0d7f-34" value="" style="endArrow=none;dashed=1;html=1;entryX=0.5;entryY=1;entryDx=0;entryDy=0;" edge="1" parent="1" source="Gz2HUSbGCzD6odtx0d7f-28" target="Gz2HUSbGCzD6odtx0d7f-25">
          <mxGeometry width="50" height="50" relative="1" as="geometry">
            <mxPoint x="467" y="340" as="sourcePoint" />
            <mxPoint x="440" y="270" as="targetPoint" />
          </mxGeometry>
        </mxCell>
        <mxCell id="Gz2HUSbGCzD6odtx0d7f-28" value="" style="rounded=0;whiteSpace=wrap;html=1;rotation=90;" vertex="1" parent="1">
          <mxGeometry x="417" y="210" width="100" height="10" as="geometry" />
        </mxCell>
        <mxCell id="Gz2HUSbGCzD6odtx0d7f-36" value="" style="endArrow=none;dashed=1;html=1;entryX=0.5;entryY=1;entryDx=0;entryDy=0;" edge="1" parent="1" target="Gz2HUSbGCzD6odtx0d7f-28">
          <mxGeometry width="50" height="50" relative="1" as="geometry">
            <mxPoint x="465" y="330" as="sourcePoint" />
            <mxPoint x="467" y="90" as="targetPoint" />
          </mxGeometry>
        </mxCell>
        <mxCell id="Gz2HUSbGCzD6odtx0d7f-37" value="" style="endArrow=none;dashed=1;html=1;entryX=0.5;entryY=1;entryDx=0;entryDy=0;" edge="1" parent="1" target="Gz2HUSbGCzD6odtx0d7f-26">
          <mxGeometry width="50" height="50" relative="1" as="geometry">
            <mxPoint x="680" y="340" as="sourcePoint" />
            <mxPoint x="440" y="270" as="targetPoint" />
          </mxGeometry>
        </mxCell>
        <mxCell id="Gz2HUSbGCzD6odtx0d7f-38" value="" style="shape=image;verticalLabelPosition=bottom;labelBackgroundColor=#ffffff;verticalAlign=top;aspect=fixed;imageAspect=0;image=data:image/png,iVBORw0KGgoAAAANSUhEUgAAAggAAAEgCAYAAADR64ulAAAgAElEQVR4XuydB9SdVZX+Dzr+RYoMvQwklIRAgEAooZcACZ1QQpcioCIj6lrjLMsaZVRUBkEgUlQUEGEooQVCCxJaIIReg0BooUsJCCo6o/zX7+BzZ+fw3u+W75a37LvWt+797n3f856zzz5nP+fZ++yzwI3XXvNBaPD64IMPwt///vfwiU9+Miy2+BIhfPD3Rrf47y4Bl0BdCSzQQDb83ugaF69LwCXQawm8/uqr4Z8+8Ynw8Y9/LPz9b38P2MYyvxZwgFDm7vW25VMCjYy/A4R89pvXquoSeO3lV8InF/xk+PjHPhb+9re/OUBAIf6PQVgwLLb44s4gVH2UePsHKQEHCIMUoN/uEuiLBBwgZIjdAUJfdNEfWloJOEAobdd6w0otgUoDhJWGrhxGjBxZ6g72xrkEXAIuAZeAS8Al8H8SmHHLreH9P7//EZHMF4PgAMFVxiXgEnAJuARcAtWSgAOEavW3t9Yl4BJwCbgEXAJNScABQlNi8otcAi4Bl4BLwCVQLQk4QKhWf3trXQIuAZeAS8Al0JQEHCA0JSa/yCXgEnAJuARcAtWSwAAA4dpaKqiVhg71XQzV0gtvrUvAJeAScAlUXAIOECquAN58l4BLwCXgEnAJZEnAAYLrhUvAJeAScAm4BFwCH5GAAwRXCpeAS8Al4BJwCbgEHCC4DrgEXAIuAZeAS8Al0FgCziA0lpFf4RJwCbgEXAIugcpJwAFC5brcG+wScAm4BFwCLoHGEnCA0FhGfoVLwCXgEnAJuAQqJwEHCJXrcm+wS8Al4BJwCbgEGkvAAUJjGfkVLgGXgEvAJeASqJwEHCBUrsu9wS4Bl4BLwCXgEmgsAQcIjWXkV7gEXAIuAZeAS6ByEigFQPjgg9qxEbUOXGCBBYK+5zMve51+12+V6/mSNLheH3u/lqSDvRkuAZdA3yRQCoDwt7/9LWAQ/v73v0dBfuxjH6v9z/cyFvxu/8e4cK2/iisB9akFCmk/0zoHDMXtY6+5S8Al0B8JFB4gYAwEEP73f/83/PWvfw1vvvlmmDdvXvjLX/4SFllkkbD88suHxRZbLDIIAAL+ZFA+/vGP90fy/tSOSECgUKBATFEKBL2fOyJuL8Ql4BKokAQKDxAABxgHDP7rr78eHn300fDWW28FDAJGAtDwT//0T2HllVcOa665ZvjUpz41n7uB3/xVXAmo78USCCyKGRIQFKtU3JZ6zV0CLgGXQG8lUHiAgAHAKLz99tvh5ptvju8AgTXWWCMstNBC4bXXXgv33XdfePnll8M222wTfwM8yLB84hOf6K3E/WkdlUAKECic7wQQ7Gd3J3VU9F6YS8AlUHIJFB4gYAD4mzlzZnjiiSfCZpttFlZZZZXIGsil8N5774Xbb789vPrqq2G//fYLCy+8cPwNhsGp52JruFwM9CefYY/mzp0b3Uv0M+6lJZdcMgIG9XUa2FhsCXjtXQIuAZdAdyRQeIDAZA8AuOyyy8Jaa60V/z75yU/WAIDE9u6774af/exn4YADDohGQ8bCAUJ3FKtXpYpBeP/998MDDzwQXnzxxY8Eng4dOjSss846NfeSZRk8eLFXPeXPcQm4BIomgcIDBNwLBCVeddVVYcstt4zsAUZfDIHtkLPOOiuMGTMmrL322rUYBaedi6ay89eX/ufvlltuiQzS8OHDIxhYdNFFY6DqI488El544YWw6qqrhu22226+3Qwel1DsvvfauwRcAt2VQOEBAivId955J0yePDlsvfXWMRhRAYoCCaKUJ02aFMaNGxeNCC4I7Wjoroi99G5KQP3/i1/8Iuywww5h9dVXjwySdrcQpErg6owZM8IRRxwRgYNyYEhPulk/L9sl4BJwCRRVAoUHCBh/6OXLL788LLfccmG99dYLn/70pz+S7+Cll14K559/fjj88MPDEkssEX8nQNEp5qKq7of1Bgjcfffd4bHHHguHHXZY+J//+Z9a/Am6If245pprwmqrrRY22GCDWo4MQKL3f7H732vvEnAJdE8ChQIIWcFl2sUAvTx9+vS4SwE3woILLhgNBfQzwYm4IFZYYYUwfvz4uMLkleZEcGPRPUXrVskAhPPOOy/GleBCUGAqfaktjwQsAiJeeeWVsO+++84HHt3F1K2e8XJdAi6BokugkABBK0NRxRgJjMCsWbPC008/HZZddtmw4oorRpDwxhtvxO9gC9jmyG8ptazy3OVQPHWm7y+55JLoOthxxx3nS4CFe4G+RjfuuOOO8Ic//CHstttutUyb9LsHqRavz73GLgGXQG8kUCiAYPe8i00Qg8BEz26GOXPmBNwJxCUQpAZrgPFYd911w9JLL10zDhKvtsnxv7Lv+aqyN8rXiafQf8QYAACOPPLI6HJAF3A1yIWELlxxxRVh4403rsWfqL+9rzvRC16GS8AlUEYJFBIgWAZBZzAw0SuinZXiQw89FB5++OGw0047hSFDhsQtblnGQABD6Zcpz7MrFkfVAQQAQ4IUiT8hDwYuJFJuAxR4v+222+JuhqOOOirmRtDL82AUp5+9pi4Bl0DvJVAogAAAwKCzOmRVKB8zYhOjIEbgqaeeiivLbbfdNgYtZrkPuAd2AfCg+AM3Gr1XwsE8ETcCegAAIBnWSiutFEaMGBH7HAYJHQAwEpwIiwSrYF1K7mIYjPT9XpeAS6DMEigUQFDWRPIewBBw9kJ6mp86CzfDc889F40Cq0Z7eI+uwVCMGjUqJlcSQPC98cVSd7ud8Zlnngn8AR5/+9vfRvYIoEBuDJIlCRzQx9yXMkUepFqsvvfaugRcAt2VQKEAglZ+f/7zn+POhD/96U91AQKBibNnzw5bbLFFWHzxxetKkaDFZZZZJv6eBSK6K34vvVUJpKc2WrBH/8EaoBt77bVXuPrqq2NQKiyRzYmh4Fa9W/eSg4RWe8Svdwm4BMoqgUIBhIE6wW6B5DP74u+///4Y2U5wol5uAIqrymKQBAzlTkr7FLcDWx7JrigQIABo9QAGgXgFrlF8igctFlc/vOYuAZdAZyVQGoCQigXfswOEzipLv0tTQOKNN94Yd6sABCwAsGzCmWeeGY4++ugaMyQAqWtwNwwbNiyMHTs2LLLIIrXkSf/v//2/fjfTn+8ScAm4BHIhAQcIuegGr0QzEiAYEVDw/PPPx8BD/ueVrvr5/pBDDgm//vWva7+n1wAscD2wwwWwoLgET7/cTE/4NS4Bl0AVJOAAoQq9XJI22qOd5TJQbIF1M7DLhZwHJM7C4GcFJOp4aJVj73c3Q0kUxpvhEnAJDEoCAwCE6z5QySsNHRpGjFxzUA/q9c3uYui1xHvzvNRVkPVUWAa2NXL8cxYAsPdknfrpcSq96Ut/ikvAJZBvCQwAEK5PAMIa+W5JUjsHCIXqro5WFoAwevTouBVWmRUFFFJwkPV9RyvjhbkEXAIugYJKwAFCQTvOq11fAs0CBJehS8Al4BJwCdSXgAME147SScABQum61BvkEnAJ9EEChQcIaf4DydDmQVhqqaXmS6XcBzn7I3soAQcIPRS2P8ol4BIorQQKDxDsaYx22xtZFMmDQLrdJZdcsrYVzgPQSqvLtYaxi2HDDTcM991333ynd3rfl7/vvYUuAZdA5yRQeICg9Mt6Vypejv/lAJ+99947plLWGQtuJDqnPHktCYCw/vrrhwcffLDGHFFX376Y1x7zerkEXAJ5lEApAIJOecT4Qy+TROdXv/pVzMkPQNhoo40CGfL8IKY8qmDn62RdDLZ0Bwidl7WX6BJwCZRXAoUHCMrPr1iE9957L1xyySXhX/7lX8KKK64YrrnmmjBhwoR4ot9CCy0034qyvN1a7Zb99a9/DZtttlm46667IihUrgMHCNXWC2+9S8Al0JoEZtxyW3j/z3/+yE0L3HjtDSYPwpAwYmQ+8yAoI55cDDfffHPM07/rrrsGghPJpvfwww+Hgw8+OJ7qmObud5dDawqT56sFEjnumf7nNMfFFluslgvB+zo/vZcmvPK+CTUgm59e6l9NsoLPq64jdsz0ShYzbrm9HkCYlgCEEf3TlgGebBmEJ554Iq4at95667DSSivFu6Cbr7zyyuhi4GRHWAReCJsVJal4/VVcCWjQ8E5fow9XXXVVmDlzZth8880je8RvnLcgECkmoVeDrLjS7XzNFVSMWxD5K5FVlftCc5Hip+wx5J3vgWKUiCwYz4zbemeuFKMlnaulnb/skfXdHDsfAoT3sxiEYgGE3//+9+Hcc8+N0etbbLFFPMZXk9Hbb78dJk2aFIEDRgOwAA294IILusuhc/rbl5IYNPQlRp93gMFtt90WT3I8//zzoy6QdplXCgYZWN0cXH0RSM4fKiBnJzgZyKr2BQYQ3cQgcgR51eVhA861mLNHsudcxbtWvSzWrdtzWOEBAkL705/+FC699NKw8MILh6222qrmStDA+8tf/hJeeOGFcNFFF0VXw9ChQ2MnYlTcL901fe5JwVppMMG+9dZb4atf/Wr44Q9/GBkkdrH86Ec/Cqeeemp0N2UZIO//nnRT7SEpg6BTNKvcD8xT77//fpy/xIiycq4qYEp3pGker6o8NHgkFyuHbgOnwgMEBtR1110X3njjjcgQEJgoASo+QatLDu8hJuHwww+PrgbQepUnpt6ahu48TTtYAImwRAQnwhrQt0y699xzT7j33nvDv/7rv0bmyL6yTnnsTi29VEkAmcP0AOjYZST6uMqTP8zBsssuGz71qU/VWIQsxqsqWqR5W2CSBd6bb75Z+RgN5MK4+fSnPx11hTHD/920YYUCCFmBK0899VSYOnVq2G677cKIESNqvmYxBCgZkxBCxGDghlhiiSXC7rvvHoWMgC3dWZVBWMR22v4X9ch39CvsEO+f/exnow5o0AAcLrjggtjPsEeKRRA1V2XD1A8doL/IU8GL/hgyZEhcOVf5RdbX733ve2H11VevxdHgIu3mxJ9neWucCzwin+OPPz7uREtBfp7b0em6adywEN52221j8QIJnX6WyisUQJDCqPKvv/56uOyyy8J6660XRo0aFVmBgVaFIHXQ6E9+8pMoYHzTMibcpwFZ1YHZLSXrVLn0n922qNiDuXPnxniDb33rWzXAx3UMKIDByy+/HC688MKw1157RfcS9zEBV3mV1qk+abccjMDnP//58N3vfjcst9xycaLrN1jTyjVtU7fzp/zsZz8L22+/fVhttdXiKlkTf7/l0W7fDvY+UemSBbvQzjnnnPCDH/wgLLroooMtvrD3szuLIHzkMn78+J4cH1AogIARl/IwybNqZPXB4EJxMAaiYbIGF/dAPWNQTj/99PC5z30urLzyyhEkiM7inf/9lT8JpCsLavjMM8/EvvzSl74UVl111doEKyAhpuG5554LTMQYJVYi0hPfxdKffkb+jD9WznkCCCxCtFhQPABzBn/delmAoGdUFRxovOodPSGW6Oyzz3aA4ABh4CFog1dIpcy2xm222SYibwaUXAn16GMxEKxEyZfAWQ0EtVnaSi6Hbk0GXm77EhBAEDMA4CMIcZdddomplRXwZgGfjZq/++674w4HwAQ7WKpMV7bfC525M48AQQsQWqjYFuaDbs8JDhDm1ymNc833DhA+lE/lGQS7jcMiaPs9A/f5558PN954Y9hkk03CGmusEVf8jbZNWdpKfmv2y+OWIKkOxkbpmN3F0Bkj0OlSNIGjA/xNmTIl9huuA+JJ+Cw9wIUgyljM0h//+McYr8L3e+65ZwQJlmnw1Vune6x+eZ0CCHZuEDWffteoVTaoGR3685//HPVC+mFZpnrzkp7d6FlZvztA6C9AyIptytIlqyf1+tle02kWqLIAwQ5oPg8kWH4n5wEDmWBDDIGu13tWIhy5EFh9ansjZzYANtZaa62av1q+6XYGut/TXQnQh/Qf/czuBFiko446KoID+pT4EiZzgJ4FhAIBgAqioaErcUuRM0O64r7f7vZdWnonAUK6sLD/wxbyh7FvZlLHFUXgM9tkYSZ5KVI8a15KjUs7RsEBQu8BgtURm6CKmth4NHSHeYM5pR5A0KLEgkTZsXb0oZ6eVhogWHoPAaUrOzsQJXy7QlRHqLPTwCKVr8xtlsbieUpS0m06sbfTcLmeJhfRa6+9FqOa2a4KuMM/3AhUSlfEQF188cXhC1/4QjwKnBfAQ0lqPAal+3rTCYCgMczuFXJgLLLIIpERhClSFj6O/GYRAMukIGZ2tghA0u/kyNAcAOgkZwrbZRXTwmKEl0BGvUVMu8GMDhB6DxBkDzi7Z968eeGf//mfo/6waGTLPNtOiW979NFHA/PNmDFj4vZCubKlAyxK0CHtxJF7W7kbOhm74gDhHxG8dgBq5Z/GFWjCFxug/3VdOlj5XfuvbayCBR763g1E9w1EO0+grzAGv/71r8M666wT4w40aTcDEBjMMEQYEHIj/O53vwuHHnpozbVE+R602E7PtH5PpwAC5QAO2KUybty4eEgb7BLjHx1hgueatddeOyZQwyAQCY5RwCCQZZVtY0z+vAh6ZSJm+yXX426QAeB67pce8X+6C6qdFaMDhN4DBHSC+Z4j4a+//vqYOwVG8aabbor6wzZ4AthffPHFaPyXXnrpODcwfzAHwSjwh65wDXoHKEU/YLbRDXTQAULrc8NH7pBx1w+ibOzOAoEG0X0YezrE7hdOXQ12sNotkpZCYjUhtwLXN1qNdqC5XkSbEqAPmaxnz54d1lxzzdrkLFBYr1jLFgkEMpBZKWpvtYBBo7LarLrflkigUwCBsYyxJ9cFAcvsZnryySejnmD0OdkVFxQMAqvAV155JW6JZVU4cuTIQPI0JnOMw/Dhw+PpryRwAjQADgiQ4x7u5TsMyLPPPhuWX375MHHixDBs2LD5tt46QBi8qtvxyuduBClSLvaD/n/ooYeigYcxIucCBn/LLbeM4IHU7QBF+h5gyKKE+owePToss8wycUcc9zOfAEZxT+23335h3333jWxDJ+PZKs8gaIuRBhkggI6U0VYwItfRWfxBGyoOQcFr3J+mKmXC4I/v7cE9xDPwP6hPK4OsTrU+K+trGvxw8BIaSSD1Fwo4Wt2w4FKf7X2ilEX92fStckupXzs5qBu1raq/dxIgwCCcfPLJMTZJwamwB4A+jL8CWFkVYhTYVw9zwGdyqZBDBZBBnbif6wEBuCZYRQIiYZ2gnwEd0NEYAoyE4hRShrOVfnUGofcMgrawspONvmbuxwagMwBCdEKJiW6//fYIPtEHYlPQMxgHdAEwShnoDnrBwgVGAvclr06y0ZUHCASQgd4RPAMV4TORQ++wV5qjexmIdBydysTALgY6Vkl0GPD4kEiIw+Sggfvuu+9GpMegFuuAkuBzRCnYESGWQVub6GC+yxr8vtJsZQoc+NoUfKVXiz0S0yQGiP/lShLrlK7g7L0pU8VzbOIlPTcLILSzMuychMpXUicBAsYdFwO7kZgrNOkzl/DHSg/AQGAqiw5WgAAExjl0MSCA65hDoJOZNzAGL730UsxuyFzCvMI1xKwQs/D444/HuQTWQfroMQid0dNeMQjM7cSoYHcw+rxj4NEN9Ag3JHaD77/4xS/Ga3BLEp/CddiROXPmRMDJizT/K6ywQpg2bVrMEtrpwwArDRBQCiKI6TAGqU5bBM0zOKF5oPUIHsEtQHY8Jm1oIQADqA+fEB1KfgQ6S390FJ07efLksPHGG8eOhRoUIKFzmUCgiyib8pgUQH/4JMUw8HwZDw9m7MxkQCliBPgsg67v6eM0sFTfCSzaPknL0P8CAim4EGiwQa6a6FWXTlOFnZNccUvqFECgHMb2DTfcEGlg5gloYr5j7sCoM5/ANIomBiDgYuB77mess9jgM9fDFLDowIAABphzmJzRC9xS0Mn8TzY7AIT0o91FgzMIvWcQ6GvmeXSBvsRuYOg57Re2CNYaVwOAEFCw2267RZuEnuFCwCWBDXj66aejawEbAThAb4hx2XvvvWuxTZ0apZUFCDovgcFHBwAUQOcgNQYuCW4USYwPiAFK5zGYOb0RcECHM6AZ9HQQtCCrAzqKTgZkkGJ5o402igAC/yEKgZ8RFEhEPPvquZ/ymTREJdLBsBoHHHBAbZ+9giM71flVLseu7GWUofzkKmJllxVfQh/QxwxSyxhpK6sYBt4ZzNIzyqJ8gCMTAwNP4E8Awk72fPbgxc5qaKcAArrBPEBgGcaciZrxy/cwjhh7/jDy2sXA9QAIJnNABH9yL7IgwEDADChehTmBRQXzCOCD+YLPnP+C3khXnEHojI70ikFgnsD4ow/0IXrDPM8ikbkBXUAvYBMADtgn5gv6XvMJ9/Ad8wbME4tUGAjsEnrjQYod0AlN3LgNOEwJ/97OO+8cxo4dGwc3HUVUMcCBAclghUEgWA0Ej0uBa0FwfMcfQIAgEzoKipEVw+WXXx6DR0iyhI8J4wLQuPPOO8NBBx0UKSVACR1OHVCOTTfdNIII3B37779/LfmOBzN2oOP/UYTiA7TaV3QxAw6fHwOZPpEbgQGqkzjRgxNPPDEcccQRYd11143XYhzQKQwCwFJ+QAERDAB9T0AbugIlTeIkAKG2PymGRUDQXQyd62/182BTLdOfjFHG79VXX11zM8p1BChggcDYnT59ehy78itnuQ0FCCyw1HVsp4V1RFcwCjvuuGOcQ6yLq11W0RmE/jAIzAMsSAGXzAca+5pn6Fu+A2hyCBx6hEsbdxb2RECGfkd3mDPQL+aVww47LLLbnVxYVJpBYFIHocEW0CF6gcJAdBgKjDYIDTaAd3yEdBgAARcB9/EbRoPBi8EnuISVBSuGa6+9NjIHZNMjuIjgEyKZeYc2glHgelwPGA5WFgASrVL22WefWg5/TUKdnTarWZoNOkQCGPVf/vKXcWUPa4P8AXK8AApM/PQpyF4sEHpCJDorAgYrZcA2ASSYCOhT4lgY2FplsoJk0PM7+oBOaTXBM+h7Xu1O/NXszeZa3SkGQZO0JndlzRQY1CRPrWTsxTBZZkjlCAha0KoyrMuJ69BLrSQHSqbUSCIOEHoPEBSkqD5VX+pdbktdl7odbZySdEetYP4Rc+AAoZH2N/E7AqZjcBUQ/MPEDQrDP8REDwMAQABAMLkDDFjVg/o4yRGAoPPCiTugUwkiwTeEq0JUIysNGAXeYSR4h1LCKAAMeAdoEPQEoOC5gAfFIAAitPqR4WiieX5JAwlkAQTSYNOnoHCAAH1MP6AT9D33TJgwIa4MWdExIA888MDoRmKlR99OmjQp0nzoFeUBDgkgYjUIG4WuaGUJGICxIGhVkeuc8SD3RCcHepUVwhp0smDa0xzbkUvqnpLBtonWtEuFdyXDsgHJ0r80q6bqoxWlBQj2N+uWaqcNP//5z6O7QjsiLJhpp7yi35MyiiwCYJa///3vd/Q0Rxv7ZBlC+3z1PTK1Lkqd42JZB9tvipvqZF/Apus0RwJuLXvVyefYsnJxmqOoPyZyjLSEC9LXoBaNI+QupKcti4AFBr/+1/VyBVAO99CxSpjEO8/AZWFXAtSH1Sbf4XPEp8TgZUXKSxOJ086dUcs0SJF+ue6662JcAUwOAEER5vQFoJAJA4MPy0A/cAjTIYccEum/Y445JvzHf/xH+MpXvhJBHoCC5EoEqQFA6UcGGn5GfuMagAdsFHoEgMCttdNOO9Ua2ElfYmekVsxStCLjnUOzjj322L6c5pgaIUsX93pcCyAAhrUAqTJrpb4RsAMgnHfeeeE///M/awmteqX9AqByP9k4k17qCfUQQKDt22677YApwDsln1wABBQBXyK7CIhDYJIWHZjSN51qeL1ytGLEWKAMGA5Wl2Riw+WQ0ozdrk8Vyk8ZBHSBlT7uH9gcTt4Uk4D8MeCnnXZaDByCKaB/2JZ29NFHR0YApodTHjnambgUyiPuhGuIU+D6WbNmRXYBl4T2P8MoMBHAIMAwkJlPE7XnRuiMJtLXAEDkSQzC17/+9egyancHQLu1khGivzWmKUuugnbLbec+wCtsFXpnqeyqslb0h01sxxz8q1/9KuoKLF8vX5qbtN3dLg77ARBI7IQdgnHS7pluzk25AAiWJhSVo8HaS2UQereghM8pahwspdjrNuX9eXY1B1NAzAkGHNaGCeGiiy6qbXFl0uR7Ak5HjBgRGQYmViLLiREhhgX6jVUZ8QsYHwY31/30pz+NlDYGitgDwAMAg+BEdssoyJEtTLBZBKwqlW4vJ4O899dg6idKln7+zne+E2WstLSDKbede9E7uauog41jaKe8du9B19Fd3KgCpGI72y2zyPdZgMC4I/aMTJnoykCHbnWzzbIJ1nXVzedllY2u4mplsUTeHtmmbgLJXAAEDUwrlCx/X7c7REpgz2oQzWUT6ohl6HZ9qlK+ZRCQPYMAg64BAGAQYNTWR1wLii+A/gdVa4sS7xh8DD8GXu4lAhQBBcqqqaBEJmNcSgKqfM99yt/fyWxoVenTeu202U5haWAL9eolCKOv6XdYJfQD0Kk5p5sTbpZceC7ggF031q/czZVhnvVQCwa9a7eZTnLtdd3FMuHeZG5Js/T2oj7STQASLlfmPjEI3Rw3uQAImpgt1YfQW2m4ymh3L7KdpERv6fmiP8UcyHD1QjGq8AzLICB7DAdbVPG5IXtFBauPbeCQjVIXA0Q/aUuSvksD0DS4BAAta8RvbKUkwJWJu6oTdTd0T+nUFfPTa9eCbRMGBxcWdSDBkgWh3Wh7vTLRPaWBtyvVquqdZKB5oRU70I1+04KRczrYKUXMUj/6RvKwi1Xa28265AYgpIBAStJIObT6hH5hdwMrQZtiuVWFsc+t97nVMv365iXQSObWkFudsd8zoL/61a+GU089NU7+9SKKLdBoFZA23yK/MpVAvT7spaTEICjIFbZJk22jOacb9UwBajeeUbQym7UB3WyXFiU8gziIHXbYIe5+GuxCtJ06p+OmFyFzL7sAACAASURBVHNWLgBCO8LSPepA9skT2EbwBlkU+zHIB9MOv7dzEgAgnHHGGTFo0aJt14nOybjoJTFvEItCVlX0hfgTvbq5Iiu63KpWf7m/0RfcUcrI2U/mq5d9UBqAQHIkDmPaYIMN+hIV3ctO82cNLAEGNTEM7IKwKNsBgmuOXVhA65NbhclfWwzFIrikXAJIQPEHfCalOzFM8v9XYT4pFEDIop/pOIKN8CUSzEKGPYLMFA3cDJ2ZRe/Ve1YztE49ujCLIhpoGFZBAbsxDaEP7FbgT3EjPvF3Q9LFLVPMI65JPhMgqFWhj7vi9muna263W/7iF78IHBluz9/o9PPyVl6hAEKaUEcDmU5kPzuDnbMZQHgWICi4I00+kgbDCGwokRIJlPRMpXDVJMK9A00kCsayCXYAMETXUy5773V/PUBRFRqr04MCgMBxq2yN4rP6wKnjTku6uOUpBoHtrIxVMqsKRDpAKG6/drrmsh2USzbWLbbYojZ3V0FPCgcQ2BNLGmQbfU5HcYgKA50Uy6KA6FS2qhG0SEfDLNhOtdsr+Z08/yTlUEQxdBLGhVS+pO9V5LtWHwIcNtmKvlP6Z8pgawrGiXKoP/VhW5WNwLdR9pRPOX4gVHvDnX699dZbY+ZE+kbb1hwgtCfPMt7FGNNpfoBIsnOKHazCxF/GPu1Gm5T5k7mDBSg2hM/9CFLsRvsalVkogMBkf/HFF0dDDs0jkEAj2RLH/5zhIINAik6S5bA6oEOzGAR7ghuHO7G9jgQ8TBrse+UcB7JXYdABHzyXMx5ICU22RZgA7sH4s/2FbTAAArbZkbSH+rBvFYDBPnzqxHWUR/nsvOAZPJP9/gAIJi/859TbU/w2UuGP/k7fkQCJkzgFCnq9t731WvsdvZSAGAQYPT4zJvVyINnLnsj3swQQAI2kZ8cGsOOlKuxu4QDC2WefHd0IUD0CCCniF/1/+umnh1133TUaWq3+7bViArQNDkqaHRAcFU16XoIeiW0gzz/Z9ZhECIK8/vrr48oUw47h58hQfJgk0eDYYFgDXB6sYlmlkMSH0yXZUgXYgEEAaHDyJEwDjAcrGE4VJN00wIGsYRi4fmUOy/ewHbh2uIjYwXDmmWfWaOOqIP4i91sv687YZwyzKuTF+HUXQy97oBjPsuzwSSedFPbff/9oC6oynxQKIGDIOQaY1TYAISuQUACA91NOOSXssccetWQ3aafKv6Q4AwAChpxc/xgZVvwc2kOkM3Q1QIHtUHwHU8AZASRYwY9J6kuug1UgIhoGgYOB+AwIoDzYAJIAAT5gHgAKOoJYVPjw4cPjeRT8TqIeBwitTyTI8tvf/nY8/U20sSb/1kvzO8ooAbkYGMtyTTqDUMaeHlyb5IbmHUYY2wAr7ADh2mkfSLQrDR0SRowcMThJd+BuBvVZZ50VjXAWQLDggEFPohwBBLkXshgEOhtamhU/2yXJ5U+cA4YaAAANCSAAIAAg7rvvvhjbgGuBEwcBBqz2ecfA8x2uAv6oK24EygUYUC4vUCiuB5gEbbWCbQAwMGmRwW/jjTd2gNCG3tD3ADTcONZF49RxG8Is6S0CCGxdswChKhN/Sbu1482yhzXBNrFg04FeVYhVKRSDQO+z1QSjy0l+WX4gvtMOgkmTJkXKH2NbbwuToty5B8YA3zV0I8YclwJuBOIbcCWQVAWjM2PGjKiIuA4ABLgFiBnA+MvwCxSQdQuA8eabb8YydVIlzwB8sC0TVwP5vYljILYBlgE3B6CDHQ/+ak0C9CVs0IEHHjhfGlIHCK3JscxXy8VAPBOfGefuYihzj7fXNssgcFIsR8XD7lYFSJYGIFg0J4DAkcC77bZbXNErBiFVExvoyESBkce4Y8BxD+Aa4A8wQBAhcQYAAsACcQMErBA7AO2E8Qdh8sdnRb0CQqgT1/EdMQcAAow/UbGUD3sAIwGLwTkAO+20U3SleHBd6wMbeU+cODFcdtllMU5FLEIVEH/r0qrmHQpSJMaIF0DdXQzV1IWBWm0zKXJCLHkQWAR6kGIOXQwDMQjp9kU6luN9x48fP98xqlYZlETHBjtiyClL0asyLlpxYLAxQLAKTCqAAcVCKNhRdVEZPJPvFDxp8x/oe0ACRxaTzhMFhJkAdLhRa33Son8uvPDCuINFq0JnD1qXY5nvYCzC6OGKUqpljU/XlTL3fGtts4mSCDxnscli0RmEAgME7U4g6pTOZMWe1aFZCYoUuMj12gKpfAXKT4CK4WrADaDJRIZeuf8FCoRA9bv9Xp95t+CBz1Xaa9vakG18tVItsyVJMq4K4m8sHb9C4w3WjjNc0Bd2LwlMOih3HZEEbKplmGXcwrDL6Zb5skqslC4GAYSTTz45nrylrIViCpQIyRrotIN1HK2MtZgF/mdSYfXxuc99bkCqyYICCzw0QemZYixskKUbtPaHHH31zW9+Mxx//PEReFkQ136pfmeZJCBGELch+sGkL11xgFCmnh5cW2RLeL/ooovClltuGRleBwgFZxDoUHYxTJgwIay88spRS2xnp+l3tYLPUifLNOAKID8CSTOOOeaY2grVXmMNf/p9uotCIGWg6wan4tW7GxfDvvvuGy699NJa/wwEBqsnIW+xdjEQc8RnJn0HCK4XqQRstl1imtg9x4mO7mIoOECgo8mDYAEC3ylOQAa5GX9jPYDw5S9/2UdUDiUAgzBr1qwwZsyY+YI8fWWYw87qU5UY04B9cpWgL+Qc0auZOaFP1fbH9lgCNkiRfDbsdiG4vCoMb2ldDFkAgc5WQiJNAs1MBg4QejwqB/k4+hmGB4Bgkb4DhEEKtkS3M6Zhmpj00RfykThAKFEHd6gpNgZh5syZMVGSp1oOYYEbS8Yg0NHsEGAr4Y477hh3H2AwmtlGqPgBrrcuBmcQOjQKO1wME/+hhx4afvOb37iLocOyLUtxcjcSg8BnApl5VYU6Lks/drsdSpSEjrBtfq+99vJtjuzKKzJA0PZCtjmyb5VcA1dffXWYNm1a7Nzjjjuudv47+QgavRTQxORBcCIHLpF20wFCI8n153fA4Ne//vVwwgknRMbI8yD0px/y/FTFICiTIonOeFWFOs5z3+SpbgKS6AUn/bJ7zbc5lgAgsIokkyKJjUiRDD1EQNJ2220XkycBDGyEeyOltL4oMiOyM+Kzn/1so9v89z5IgL567LHHIh2o4FOf+PvQETl+pACC8iCQQr2VuKQcN82r1kEJ2NMcdZ5OVtr+Dj4yV0WVMgZBncppjqRL/vWvfx04yplUxuw8IMIdVqEVo6Eti5SNonBmAimc/ZU/CbCNdcqUKZE9EmXcjCspfy3xGnVLAnabI8/g4DTfxdAtaRe3XMUgMI9Mnjw5HtrHGTpVcUWVFiDQsWeccUbYdttt4zHLjz76aJg6dWpkDjjPAWYB6rmZwDXlT7BJj1AQNzr5HPgABKVaZtKvEuLPZ4/kr1YCCGRE5TMJcPRqJnA5fy3yGnVDAjZIkV1xLC79uOeCuxjUqTqLYciQIfEMBDJhQT0rSBGFasbIi3rULggBC59IujEkB18m/Q8IJJGV7SPvr8HLtiwlyMVA+lzckZyr4gChLL3buXbYw5o4dRfmmG2OziAUeBeDIk+JQYBmJlGSXARELSvIpB01ElhoxT3RznP8nvYloJM5OfTKBqE6QGhfpmW7kzlCqZYBCASfacHQDKtYNnl4e7IlIFuCjuBaFjhwgFBggCAjbhMl2TMSpArtTAQWIPigyqcEAAjf/e53w7HHHhsrqH52gJDP/upHrRSdzqmrfGbRINDfzrzQjzb4M7svAetiOP/888P2228fc2Y4QCghQOi+OvkT8iABVoZk0LzqqqtiEhyxCD7x56F38lEHuRheeeWVCAw4s0Xgvxm3Yz5a4bXotgTEIPB+9tlnh1122SUChKowyKUMUqzHIHRbmbz8fEgA1H/PPfeEDTfcMCJ9BSrmo3ZeizxIAJ0gp8ns2bNjDAK6IrbJgWQeeigfdUA3eDGPvP766zGLIjFoziDkkEFgUBN8NmLEiLDZZps1RHHEIOyxxx4xBsHp5XwMuF7UArR///33h/XXXz8yCBrMPvH3QvrFeIZSLTPp85ngMxkC15Ni9GEvammDFJ966qmoJ+yA89MccwgQQHOc0HjHHXfUDD6TPytGGQI6TqmRSWjEkc9rr722+xd7MZpy8gw/zTEnHZHjamibIywCcwZ5UTwPQo47rE9Vky3BvrBtHhfD0KFDHSDkMdUyQACjz5ZFvQAIf/zjHyP9QwILgo30olP5TqdvVYUW6tNYys1jAQhkuSRBlmhj+56binpF+iYBxSA899xzcYGx+uqrO4PQt97I74Ptcc8333xz3A5Lzoyq2JJCxSAo8lhsgU1g9O6778YDV+Qf0m9210FVOjW/w603NROQlL9QT3XquDfyL8JT0hiEjTbayFMtF6HjelxH5hJe6As7XmCalAenCvNJoQCCIkrpMFaJ6iDOWCAojUG+7LLL1lRIRzsLLDSbObHHOuiP67AE6O9rr7027LTTTvPFqVRhQHdYlKUtTi4G0q/zWnTRRX07bGl7u/2G2W2OHPhH7NtSSy3lDEIeXQyiBeluxRrwma1Kt9xyS9h0003j+Qg2KM0ewFKVrSntD4dy3Al4JMU2OmFdCw4QytG/nWiF2Ejck3zmLAZezjJ2QrrlKcMuSk888cRwwAEH+HHPeT7uWQZfKqiMaGRIXGihheKed21tyzIIbiTKM3jrtQTUz2D+93//95gtD1rQAoXyS8Bb2EgCzCNkxiP1um9zbCSt6v4uIIndIP5NOxiqAiQL5WKQmqYggfiDZ599NiY7WWyxxSJVmG5rdGBQnUEOaHzzzTcDqZb1cvaoOv3fTEvFRj799NMxSJGjweWK9C3RzUiwGtfY457FJlTp8LdCAgSrmgz01157Lfz2t78NW2yxRe0I5qogvGoM09ZaycqQrGeHHXZYLaDIs+O1JsOyX20Dni149Hmj7D3fWvvscc8nnXRSPM2RhWhV9KTwAIHufvXVV6O/eeONN/5IDEJr6uBXl0ECUMYErN53331xdUhwqrsYytCznWuDghTfeOONGINgg5udQeicnItekg1SJKfOfvvt58c95zkGIVU4rQS0Y4Hfy4LurCvFXSTNTzXaxcCx3nk77jl1j6X9arfl1vucNQYEgOw9zUisno6l5aT1HqhstanVujRT33avUcIbez9M00MPPRRjEAhwTuurdvjYa1fqxb9PeoN90WJDLuwq6EXhGQQ6DX8zDMImm2wSVlhhhVKk1rWKyTCzqT2roJjNTi2a1C1AZMInoIjtSHy2Rz5zvZ34ey1L6skzbQpo2sr3gBklZuEasvwtuOCCURS6DzZEvnILCtijTZIwAeasVTBl6jm6l7JUNjpm84dQli0n67mUaY0v1+sePavfK3LqR5Kbr3zlK1Gmth38z8sGsvL75z73ufClL30pJlnz7dHNjsbyXSfdZh5BL+w5DL2eO/oh3VIABPIgsO99m222iecuyKdY5A5UcAzvNn00n/s94fZDUes90yYyEXvEpP+1r30tcNw38tI1rBgtWNBg72V7BGiy3mWQmYzo41mzZgXyv++zzz7R+GuCEhiyKcZpgyYzlU1bFVilMaFVENcwbp555pmwyiqrhGWWWWa++wVIVWa9xGMCXAI2lr3LyzikjtOnTw9XXnll3N2ieJQ0mFluh+uuuy4CiZ133jkCB9rkMSy9HCX5eZZcDOjK8ccfH7c5kmq5LCx1I0kXHiAwMb3zzjvhzjvvDKNHj46R62U4bYvJilUhExPvtInVpEfjz6/SBKiSZlsrYkAAsvrMZz4T/vu//zto+6tYmCWWWCIyCzJ8ik9oNFA69bu25QrkyZhTb76jPlrRswWPvkevdV6ANdS6jropcZjVfcsWWADB1k/J64UXXgj8kQCG62UQLdMigCX2QuyH2qA6iU2wzEYeJlLacuONN4ZLL700gkbJiO/T/keOAAT6AxcVY64qB/N0SsfLVI4ANu+/+c1vok4Qr1KVebiQAMH6Q7XSBvFDB9okSamidptRSP25A/lt6/mebZ1lxMj2xiTFipC/gdqRNUlrwlbZdvKX4bDX1Ku3fW69tvba/wwIYDLnjHat8pjkxRxolch3BLPyP+ABvRGt3MsJDbkBWtDT559/Prz99tth2LBh8bvbbrstMmCcGEea6DPPPDOeJULkNAyCXBMYNbEMtAHdhwl48skna9kjZbx1HfciE7YEc/4A+7kp8/bbbw9/+MMfwnbbbRdlqOutLB988MEorw022CDeP3fu3AjEuV7ytaDBTp69mEili1njQmPopptuCldddVVkECSb1PDLPQMbCTDjYB6BcmftejlK8vMsxgN6ga5o8SGd77Y9yYMUCgUQrFGyRo4YhKlTp8ZAI+gfJUtKDWI3OzSljK2hlNGWvxdly6Is0/aJ8iQaH0UdNWpUnNhTQ63y02dmGX99lwVQsgBAWrZVWp2V3mgV3k25X3zxxWHzzTePrADPEYDCaOqzVsCslIlVOfTQQ2Mz+jHpywjxfI6khuZnRXLNNdeEiRMnRmAg18AjjzwSQQzHVuNqQN4Y51VXXTWwf592Y6SZuJDD448/Hr7whS+E3/3udxFkkDiMIDxyg3AtOgdIYkswsTowE7Nnz44TIHkAACvkE+E6TkClbDINXn/99fEadoZQXwAGoJVj19dcc81oTCmHulIObbA0vgWt0p9mAHIKNgcCsSnoTSdXAMJll10WOALeZmFNxyEypi+QKQDBHvSWhwnb69BbCWi8MnczHtniCAtZFVapcABBjIGdLHAx3HDDDREgDBkypGZAtaqxgWrdMlZaqfAsTpvEKDFBQ+cy2TDRvPTSS3HrHSfHcSqY6qKVIfXV6lcolXKZlAmy2nDDDeMWG9Ge1r+MQWQy55m8M0mLTbFnUqDYWiVSNtewKuR77hVIUdQu9ecQLNVRK0KeBwXOO8Ghui+lnbs9kGAQyH+BXPTsLMNCmwEIrNIPPvjg2tG+lg5PwVNq2LL+tyAsLStrKrMugrvvvjuu+jHosBrEAtx7770RILBqHzNmTAS+48ePj0ecEyeAYZ8yZUr4/Oc/H91qvNO2W2+9NZa17rrrRgBAkB0r5jXWWCP2E2BADACxDYAGgPWcOXMiqGbyY+wwlgCi9CtnWcBsABAog/rwfM49QVeQB0wCek151BmAsNtuu9VOVZW+DMSmpaxZFojIYgk05rhesTq618qZOgggnHbaaVFPUl2xiwkAAqBn1113jePWzjW9NU/+tH5LQDrGO9sc99hjj8jydXte63e79fxCAQQFQtnVAp8xyEz+rHigTVnRpiuKbtNCQppMLEzyrLK23HLLOOEyCQMIAAqs/DAETMa8ZLAxCopYx8BzH5MT7WH1yCTM5CyGhGuZxJmomeygmEkOBB2N4Rg7dmyctAEKTPKUh1xYrRLhr6hcji7FAABa+MxKnJUgdX344Yfjc3fYYYdYBt/phET2j7MahQLnPmhq+of66hoZh26BMuQHQGB1rOQlWZO5+gZKH0MqBiE1OtbgWHYh1SVdp/ZZYCEQYQ2ibb8MFwAMsHjFFVdEXd1+++3jCh3d4eCgSy65JMoWGRN8S//yDliDKeBa+g2wQ/mADa5hRY+xh42gfHQBZgBjjz6y8me1z4vP6BT3w6ygk+gT44i4DuIS6HNkDCg46KCDov4BFgBkAEt+Z/ytttpq0WVC+8hHgk7wyopByJL7QBOiBWYpSLOgmnItO2D7kBiEyy+/PLQKEDQm8zJhez16KwFrcx544IEwfPjwOD7zEFvTC0kUEiBoNauJBqM8b968SL8zgarzLO1PRzfy3w9G4HIf8EwmTowrh0hhcJlwoaVY+c2YMSOuCJlQMfBMtNC6UMLrrLNONNxcc+GFF0aaF8PBKpJVH0YfehkjjKLedddd8VAiymbVc+qpp0aDQeAeRgB5HHvssdHPfMYZZ8R6fOc73wkXXXRRzf/97W9/O9aVVSyg5qijjoqGAQBwwQUXRBr8kEMOicYIY0X5GBJWpxgl6ocPHUNHu2ETiLoHJAA0rBEdjHzr3dssQMAg0z4YBFbrGDUxKFqB6n9LOwscoFN2NaHIdmv8bVttYF8Wo8EzZ86cWTOuBNARB4DcMdL0x9Zbb11jdiZPnhz7n7o98cQTcTVPv+65556RrXr00Udj2ygDoIBenHPOOTGoiusx2PQN4JP/aQvsEKCRd0AFusXkBysAqEAPAIawVwBwwAG6ByhABwCavNBzwAwAAV0EiDAO7SrLyimLDRBwEsCzIMx+Jz2wQIz6oJuMNUA192q3ilg2djHgYnCA0I1RWN4ybaIkADX6LzvSzYVPXiRaOIAgQ8ykJnTH6hgDCdUsF4PtPCZzVgLdRH0okj2CmlU/RpMJk1U9EzDfsdJl0uXFb/wPNQxAABAw0WEcmKzFEmDMAEGsCLkHZkAAAYPAhM59GEsoMJ6LIceo45agXoAFgAZUM3Tr3nvvHSd0JlSBK+qAzxoDinwxNKxW+R6DAfMBKMA4AW4wEPwxYHiHmn7xxRfjM+iHgQJGOzUAmgUI6Aryh6rHgMEkyPhjJLV9VPEh9l3t0HeKgk//F2jQ96Ky9S6dlNGCTUKuuAFefvnlaPCRG+ARsAWQA2R9+ctfrqUSpy8BOqzSMdz0N7pBX5IKlvTS/E+/E5cAAwSrwCmntJtyARM8G3cEIJBJDyAhcI1+oRP0M2UhM56LngFgaD9gAdaI+uGqYIXOiYgTJkyIz6PNov3rgUQLnLImWwvKLDCw5fEM2s7BXLAkAFZYMuolRoGxCUPiAKFTo6465dht1IyVcePGRf3qpi3Jk3QLBxBYLTDRYxD1YhLDAGPAmMSYQLTfmwkR+pxVrla03eoA0Z08n4mflTmTKXQwfmH2YTNpYdwxAhh76osLggkcw8pKjRUeAWCswmECiKpmoocBwDAwoWNI8PmisKycMDDnn39+nKCZ0HmfNm1aNAK8E9zGc8gPwH38DnNB/agr9eEzTAV7fTEIXI+sMRgAAkALZVMPjBl9gMxZadIu6kSZGDwMSD2KuVn521Ukn7Vl0RoTxSA042IAiMG6YFQBPoqzELjTO223v2Vdp++4VtcrPib9zjJZcnUxwWg3goI8tepVkKKuQV7Wbcb36LLAMoZdK3C7FVGJk3imqHeBIa3Kbdlco98tXS9Gxca8CACojtY9o/5NAaKl/Ou5n6zxH4h9khx5LgsEmDH0mjiLww8/PLIvTOSSmzMIzY46v85KwM5BZ511Voyv8W2OISxw47XTPpCgVho6JIwYOaLvmqPOgm4lYIuVivU52gpqwmTFy8SE/xbqtpsv6ifEyaQFE8BERhQ6Rp8VOZM2q3OMAJQV9QTE4F5gcmOFhq8Lo8xKkZUcxpZ2ioGgbIw0q0CMHSt8AhkBCCR3oc18z6QIGIF6JuAKBed3VpCstjDmClIERFFXWIrdd989toPnU2/oY3zjGH7+hylg1cZAob7UT7QzQIRnKqNl1m6NZvtABpB6ITOADiCF5wKueLFKZmU8EEDgOsqiPTAHuEzqBak1W7dWr7MggXvT/+t9J6MstsMG36kOaUCevSfrvpS+t8Y9/SzZWdBjAZQ+Kxi3HuhKQVgKxlSOLS99jv2f5ylRFEwG4ABdBDgxlo4++ujofhGTAED3GIRWtdavZzwwnpgvcM9pK70zCDkFCKgsAIEVL6vjrC12MtK84+fFEBPI1k2AkPqnYTUw2rww4NQFA4+BBdiw8gZAEC+AAWb1zTsvjC++f1gFRY3TTuIV+OM+3A4YSgw77cJAAwS4h8mT7zGIXAMgoEwCJaGBAR3ID6DBBIp8WIXymTrDtjAZwyxQX8qkLKhkdoowOHBF8BzKAfQABCibQQS4EV1tV42tTDcyoHIjwR5885vfjIaAGA4oceRIUputttqqJYCA+8Vuw2ulXlW8Vn1hQYxlIPR9VmxBGqNhAUg9H659nuSt79LgUfQUdo3dHARW4mbEfYauE0/Bi74GIBDn4TEIVdTg9tssVhBdZW5kbqtSwrpCuRg0STQLEOhUKGUmECh7JZtpX13q32knPq3omMy0W0ATG5OVVnh8ttnwKF1+Vz5rO6Ky62U9XeiWd66jzbpPn/kewMI1GO70JbmmmfeoC98pRbGCQ+VrzzIIWnGqXY1yJDTqCztAWf0DEgAuBN2dfvrpESgRvNcKg+AAoZHU5/+9HkBIjfdAsQZZRr9RLbJYlpQxBKTCpJ1wwgnRtSB3l9VV9JUYCY9BaCRx/z2VgIIU0aEf/vCHMbaLBdNA7q8ySbGUAIEOUsfiU4fax4B0O3OeNbRaoaYrYTvB1fPDWopYwXNiRWT8LZjgGRaAKFhS34uil8+73upZwIZn6Rr5mpmI5fdWvVVPOyBUDwuC2jEOAhrcK1BFIOq5554bETzsATsuAAu4jxwgdGdaarfvGtVGrg9bfsoopAC0HrMgEKs8HrYcPQcGwQFCo17x31MJaIHC9wQNEwQL0+suhgK7GOzKg33g+PihoWEQevGy0dl2ktOqRsZPhlaTmOpm7+ezfrdsga5JjT//K1AtnXAVVS4/sQCTLT/r2RoMXCe/r56htmjrjw1kG4ysxciIxYABOe644+IuCfqSGAviEMgXAK3sAKE1abdr+AdyC6S63sidUG+c0BKr9/yvsgRidY30TwyaHUtWh9i54y6G1nTEr/6/WCHNmdq66wChJACBGAQAAlHN3QYI9Sj3egNtoOuzVlYW+KQUV3q9LTsFAFmTfHq9rbMmazspa9JOv7Pfp4CnlQmH+sBaKJEUbg5iKbS7Q+1vZpujjIiCFN3FMH+QpDWq6epb/VsPGLTSp92+dqDxpMOaPAah271QrvK14AEgsDghpsue+VOu1n60NaV0MVhD2kuAUHZl6WX7Hfx9eQAAIABJREFU6EO5UxTPwHdpsisHCO31il2RqwSNG8sY1XODtffU/t3lAKF/si/yk+XapQ3kGSGnDTEIziA4g1BkvS583TFW2sEgNwPv6cB0gNBeV1v6X3KmJFgbZSMEHPR6O2h7rWl8lwOExjLyKz4qAQsQ2DFFNlJcmx6k6ADBx0sfJSBqT3EXluK2nx0gtN9JdocIbA1bVIn1IPGWDWQtw2ToAKF9PanynQp2ZwzgqiZAWqcFF8HtNti+cxfDYCXo93dFAlrV2kBOHpQaqyICBK3e7QSTbjElM6YOzkoDR5EDZWhLrM5UsN/zmeyXJK4id0ZWDhAFnVI+zydxFtkzSXRFQio91+7IkfxtMGoa8FgvjsEqSq8nVwcIXRmmlShUgdlkjyVZHEn67DkjZRaCA4Qy927B25YVqJk2qagAgUmHhFUkqWLbFAGUJJoiCIrJhyyYZNYkMYtSMFsQoa2ovLPq5ywM7hOoQE6ADI5BJ0kYibPSF0aeLITUg8ycvJMxkx0q5JbQSsn2A8GiXIcbglTgbDMFoJCUiNWVAh4tAEhZoH4wEg4QCj4Z9Kn6cnXy+F/96lfxZFvtmOo1yO2HCBwg9EPq/syOSaCIAEHUPit28nSQVZMzN9Zaa624QiHVNmdFcCIjZ8+Tx4Psmfg/dVAMEdXcT3phkgOR2ZKsnAAKzv7gjA/OzeCYZsrlXsrl2ZRBOmJenBfCoV677LJL/J8DoPidraQAAU5qJLnWyJEjI4DhedzDKkrpwJUynAycZATVuR+0C2CSnn7nAKFj6u8FdVkCNgZBWWUZD/3Q4S43NbN4Bwj9kLo/s2MSKBpAsCsSVuMYZIw7Kas5mZNYAM6XABCQ1po/DDhpuvfbb794SiOTE8wAxp/0r6Sext1Aem7cCqQZ5swNjuTmGlgFkkmdcsop0WATZPWFL3whbvtllw8JYCgDJoB03aT3Jo05DAQgBHaAQ2pwPZDOmPM6aAcsAs8jBTfZDHFlcAIk9QDwABg4D0Gghk7XqqvXqy9nEDo25CpVkGIQaDRjAaYNd50DBA9SrNRAKGpjiwgQAAF6YWwx5BhwjCurdlbonJTJap2VO0CCw7ZYqZNimhcHV2HoOcab0z7JLImhxtCTMfCggw6K6YW557HHHovUKECDQ4xgEsgLwv2ccIkx58AtruPgK87o4Bq2c8EUkKoctgAWgjrxbFwiZJWDHcDNAAghT4XSeeMeoQyOMAf8aDeEYiccIBR1xFWr3pZB0GmOgAQHCA4QqjUSCtraZgCCgvE4sIoVMsZTxwDbsy96sbrFgGrSwdjecsstcSUuVwFGngOpAAgYX1byRE+zEofixF3Ayh8jDZ1P3MGFF14Y3Qy8uB6AQKbJM844I8YFYMz333//QFZRzisAlHBsOLEPlIlhx4jzPSCA3QwABwIVMfx8hlbF7QAYICshIALwAtih/oAN7teLE0xpB2wGzIO2pyqbZy8BAv2vw5p++tOfznfAW3qYGNeS0pu4DkAZ8vNXdSVgA4oB4owPQLoDBAcI1R0VBWp5swABQ4ZvnEjkAw88cL501DZ9b7cToMjFwDM5lhtDhFFn9c6kw/cAAl4EHrIS5zr8+fw/bty4aKw5hAxXAMYZZoDYBUAPtD6HWsEQXHHFFZH2J56BdNQwBZyCibsCoAErgEwACDAIMAUwGJTPH0GICqDkOdSFugEq+J26UidABG4IvofReOGFF2o7LAAiOvqb9olB6KWKCSBw3POpp55aA4fUJz2O3AFCL3sm/8/SeEVXcKcxxrLyseS/Je3V0GMQ2pOb35UTCTQLEDBm+MlZRZNqmRegAYOH752gPl46HKtbzRObwbPxaWKEeTb/ExCIoWXFrt0LOmqbeIDRo0fH75mgYBpgEvjMb5SDK4KVPHECuAYIgOQZxC3wPydf8k6beQ6THcdow1awUqY8wATPADBQHt/DKHAtQIDvuB92A7lxP2ABAMH3+GcBGbAWMBxiOWh3elBZt2SclsuzYT0ATMRhCKikWTm5zwFCr3qlGM9RQDHjDIYMNgwQ7AyCMwjF0OCK17JZgIABBiAQlEewH6tdVuHy27OK14oypZ07KWKlkKY+aTIiux3Q5n8Qw2FzH9g6avujPUFT2x8x1LAKGMN0C6LdKqmTOhWUZXMk6FAvGVZte1Rb+F4rK5uh0U6ierZk2Q8XA66XSZMmzXfyqbsYOqnd5SvLJkr68Y9/HA444AA/7plg4xsdIJRP20vYolYAAqtpIvaJqscnTbQ9n7///e/Hvc0y0N0GCKItZTRlcO1z7Wd7nU07bY2twAHfKfGRDLq+s/S+rlFMgGIxrIFX+Vr5p0Y9TWZly9Az7bP7AQ7ECgAGAYcnn3xyBDMCLw4QSjgpdLBJ0nHGBe5JFhJi8XoJcjvYpJaKchdDS+Lyi/MmgWYBAisB8gmwgoTCx0+PoYB+/9GPflTbfmcNW7faKkCg8vW/Jpx0ta3rrAG2xp/vLUBQG8Q8CPikxlpARQGbAxnwrDql9U7b0wtZNtNH1JMdFcRaABAEeNJseGoPwWi4YxSkWAVD0Iwcq3iNALOyKfpxzx9qgTMIVRwNBWxzKwABuh2aGZ8/mQrZTogvnsh2fOVaYRfBIFiAkNVtWaCh2e5tVPZA5ejewZTRbD1buY7dK+SOoK8FtLICUtEBAIJ2MRBbURV/cyvyrMq1lkEgfongXuJ9uh3MnBf5OoOQl57werQlgVYAAgwC2QXxIxJpT4IiAgPZIjhq1Kj4fAZ+GtneVsX8ptxIAKNPTgjFIMCYiN1IwaCCFIlYJ7ukA4TcdGNfKmJPOmUHzN577+0xCM4g9EUX/aFtSKAVgKAgxc985jNxVagTDKEPWRU4QGijAwpwC5M8AGHKlClxF0MaHKomyMXAsb64GBwgFKBzu1xFmygJNxWZSNm14wyCByl2WfW8+E5IoBWAgItBeRAUnMY7QAHAoP3N3QxS7ESbvYzWJIDhJyiVFNbf/e53a4df2aBNSpS/mWsBEaSXZptnVYxBa1KtxtU21TLJzDiPBJ3w0xwdIFRjBBS8lc0CBFaRZFIkOBEGQSBAyYnkZ3Z/c8EVIqP69D07Vi655JKY/VFuJPI4kLsBYEBkuhgkEkaNGDEiJpVii6cDhPLpRLMtsjuO2AFFKnKSjzlAcIDQrA75dX2UQLMAgYEOgwBAIFGSBQi2+kUIUOyjuAv5aPqejI/EoKh/6X+SPrEq5MV2V2355J2EUmSAVOIs14tCdv2gK21jEACYZCjV4WNV0AkPUhy0CnkB/ZRAMwCB+jHQLUCwfuh+1t+f3X0JaBUof7IYASWT4nf8yjbfhD7L7VQFY9D9nijeE2yiJAKayVSKi6EqTKMDhOLprNfYSMABgqtDIwnY5E82KyWTP5M+v5PS2m7NtEmzqmIMGsmxir/bGATcVAQpeqplz4NQxbFQyDY7QChkt/W00hYgiE2gAsQgkDQLI0CGPL1sDgmxDc4g9LTLcvMwm4CMHBpsc8T1VBXQ6AxCblTRK9KOBIoGELSVToaqXQOEcdOBSbzn8aW22km2HwF/NnOlDTpDZn/4wx+i+wnq2LoVAA0640KpmfMoY69TdyUgfQEQcFgTwau+zdEZhO5qnZfeMQkUESDIYNr0xc0YTq2E7TsTlxL/dEyoHSpIAV5qr91a2ssVecogCDBQB06q5H+2r9mX7rHbXzskFi+mQBLQaY7oAaCc2CXtYOilDvdLZM4g9Evy/tyOSKBoAMEmXlGypmYj5VNg0IvDpQbTSba+lGNX6L2cXK1bgXrwbPqBXQwc4MXETwpdgTQBG2sIelnfwcjc7+2sBBSDgG6wzXHs2LFxF4O7GHybY2c1zUvrigSKBhC0IkEYorCbjZTH0OmIZoybDlnKO4NAIirqmAb+dUUhMgpFbsQaXHrppbEOAgDI8ve//338n73t6geu33jjjcNWW21VO8bak2f1qrfy9RwbpHjiiSf6cc//6B4/rClfeuq1qSOBogEEGXkM06c+9amaP7OZxCtiHyiDswJefvnlsMoqq+TWxUA9AQes0F977bV4SFY//LfU45Zbbgnoyuc///n5ztqgbrwUx8G1+JpJva1UywIOPgirJwF7WBN5NACSVcqu6S6G6ul8qVqcF4CgVeqLL74Y1lhjjZiZ74knnoirU4AAEwtGB4P0zjvvxEOjuIfMbIsvvnhkBsQEyGd/0003xaCoxx9/PGyyySZxe5VOIrz++utj4p9x48aFYcOG1RI/iU4HcIih4B0DyHM58hhQQZlbbLFF/N4GE3Ifz+f3K664ImYa5NhjVtPWTUA7suIfnnrqqUjds20Qv74AAu3luZyaSXZCvtezBI7sFkSe1alDs2gf6ZNhEDhwpxEY4zRHe1hTM/EhpRpU3piaBOQmEziXa6EqOuEAwQdDoSWQF4CAccMIctAPfsq111473HXXXTUjSDDc+uuvH4YOHRqBw9133x2z9XGS5Ntvvx0AFhhrttthWLn+2GOPDRtuuGFkCjhtkkmKsjFwU6dODRjjAw88MAILDqLihMoxY8ZEH+mDDz4YI/TZkgVgkdG/5pprwg477BDLX3HFFWPZf/rTnyLIwHhTNv/PmjUr1nGppZaK2eMABPjrl19++fgdmQnJQoghpa0AAl7cw/cAAJ4LKACUcHIm16288srh1VdfDXPnzo31pF1czx5zdhKQChnA1OlVO4c1ARBOO+20WqxBvbgCZMRhTZzFwGmOvDwGodDTRNuVt5kUzzvvvAjIGQMOEDwGoW2l8ht7J4G8AYR77703rvQxuG+++WY0zCTjgT3gM4lW+B8QwOlwTDi33XZbvB4aHkDANbx+8pOfhE033TTS4xtssEE0pOuss0401pxNv9FGG8X3CRMmxJMKWeUDSrbffvswffr0yD7ANBx33HERRFA+//MMrejxzWO0ASkHHXRQBAhknOTcCgw5rAP1ee+992Kd+R9G5LHHHguLLrpodBkADqgfnwEWjzzySAQ/lMm9ABV+44wDAMO0adPi9Q8//HA45JBDYvrrVVddNYIrAM/w4cMjqwHT0KlXChDqpdrmuQCE999/PzIn0Mn+qq4ExObxDrjca6+9IrD2IEUHCNUdFQVqeV4AAoZlxowZMehNlD1GBmDA/6w65syZE1fVrKb5jHE++uijI6Ow3XbbxXdYBFgAjOO5554bWQcABMaKVfdCCy0UV/K4MAAEZ5xxRthjjz2i33ybbbYJv/jFL6LbggltzTXXDBdccEE45phjoqEDYHCaJUYbAIFRhgEAIGDU991332j8AQcYdRgL3Bi0g+cBLABAGFe+p02AA9oHGAEYwSAAjHgGAIA6AIRgOGAVAC+zZ8+OLAaGeNttt40AiGdz2iIHJK222mrx2Z00zg4QCjSoc1RVu4sBYE8cDWPUGQQHCDlSU69KPQnkBSBgkFnNs8LGaGIUWTEDCDCcfAcwYNWNX5/vbr755mj4MaQExEHFs4In3oDrzj777DB69OgIECZOnBjLgz3AHYGrAtbh9NNPjwCB73BX8D8AgTgAnn3OOeeEr33ta3EFD3ihLGj8q6++Oq7iWQlB9QMweAYAAdfFvHnz4kQIGAEgwEAQswCowXATo8B9rKYAGQIIMBjIAhaAz/LhAmy4l+2Er7/+egQGl112WQ0g0Ab+33zzzWP9kEMnd2c4QPA5pB0J2FweAASAMmOpURxLO8/K4z0eg5DHXvE6NS2BPAEE6HVodYw6q30MJP705ZZbLvr3AQgYVVbKrKZhF/Bzcx9/gIgvfvGL0ejCIEyePDmu5nlBbYqdIODx5JNPjqty2AHKJ5aA57JXe+eddw6TJk2K/nOAyL/9279Fo84EB4DAeBNDgIuCawAFrOr33HPPCAow/vjreR5sBiwGjMM999wTYyAANbgqll566Rh8CRgBrNAeGATaBoOAGwOWgVPwMPbUQeAFEHT55ZeH8ePHx3twkbA6O+qoo2JZXN8oSNEmM9JnBXEqQFNlOEBoekj5hUYC0iuAAqmWd9999wjOHSA4g+ADpQASyBNAwE+vXQsYSVbeCrbD4BP8xztUP6togvJYkWBsodUxtgAIjDQre66hHF5cy2dRm6zwYSJ0yBCreFY23MNn5MLzAQMwAwABAu9wHfBZFD4THZMgdeMZlM91MCGwFYozoG18RxwCoIcgR+pIXWkzZVIW11EGYID60V6VxbWUR/kAF36HWcB4w6LwOuKIIyLgoU6NUkinEeaKK0BOyoAoXzG7GGAoFKToMQgFGNw5qKINUmR3C/kxALLuYnCAkAP19Co0kkCeAIJyHOiwH4ywTdWrTIJMOhhvjCfXKohPq2YMPL/ZxEhaGevEQSUd4n8MLtdr1cz/gBDuxwDLb8o9SrRkkzQJeHC9aH35Xu0WRD2T66i/3AB8z30yump3mtSJvuQensc9Wt0TswBAARDAQtAmWI1GLgZt6RTw4h3ApbbxPK6hXg4QGo0k/z1LAjbzKaAY4KuzOaqws8VdDD4uCi2BvAAEJQXi3RpVGUut1GW0eNcEI+CgFMBcC0jQSp9rbY4EpWgGFEDvaxWvspU3HsMIC4CxtWBDz5OB1UqdusrYSyls3exqirItAFJgplUmrd71HAEnrb4EMtLVPnXmmmYZBMrHFXPSSSfFYE8CIBXgKNACS+EMQqGHel8qL6CMjqFDBOo6g+CHNfVFGf2hrUsgTwBBlHdKccvIWqOr73QAjFbvSiCE0RSToPtkSG3SFvubvrfGW6mFARvWUIuJUBpkgQsZeiUx4nsZdtVN5es3AR2VKfCj6y1zInCgurLqxzVimQ0lYJJxr6cVAmVcRwzGj3/845jcid0chx12WIzJABwBNEg6RcyDuxhaH2NVvkNjGhn813/9V9wK7NscHSBUeUwUqu3NAASMD4mDCNYjFwDJg+xquJMNloG1xtKyBXaVb6+1dbCAQhNUlrEU5a97rQuA5+v/9Lr0WapfCmSy2I52ZJVVLuUoc2I9+bTyLJ2rwPZL2Bb6eJ999gnf+MY3IpvA7g1nEFqRqF8r/ZeewlIRHyPXoLsY/qEjKw0dEkaMHNF3jdGESnQ3QV1kncvyU+o63mfOnBmDocgGx2rCX+WSQDMAAT1gNU4gHBHzbKkT5d9olVouaZWvNUpkQxwHOR/Y3cGOEfIq7LfffjHXA9eQjAl2wRmE8ulAN1skBs4CfrFgDhAcIHRT97zsDkigWYDAQGd1ydZDsvUBGBwwdqAD+liEXQiwNRO3AomYYIrYkWFZCrZpOoPQx84q6KOtO++UU06JO4LcxeAuhoKqc/Wq3SxAYKBDEZJJkPS+AAZ85Mq1Xz3JFb/FCrykH/lM3ga2iUIBi1lQ3IbvYih+f/ejBQrcRY847pnFhY4GdwbBGYR+6KQ/swUJNAsQMCK/+93vYqrggw8+OBqURtvoWqiGX9oHCShIkX4UWGBCByBoJ4RYBlwMziD0oZMK/kjFAAE42eYI64h70vMgeB6Egqt2NarfDEAQ1cwhRBgKGARtwavCKqDsmpC1xVJtVoCmb3MsuxZ0p312ZxKLDJ3D4ADBAUJ3NM5L7agE2gEIMAhK0uMAoaPdkdvCPNVybrsm1xWziZLIs8HOGIJgHSA4QMi14nrlPpSAAwTXhGYk4AChGSn5NakEFMvC+y9/+ct4dgrni4iBLLvEPJNi2Xu45O1zgFDyDu5Q8xwgdEiQFSvGHves9Og282fZxeEAoew9XPL2OUAoeQd3qHkpQLDZH9NHXHPNNfF8C06tVMpmd0V1qCMKVoyyj8IgEOQMe8B5IX6ao7sYCqbK1ayuA4Rq9nsrrWaSZ5sjR1hzZK/iTxSApslexoBT+0gBvdNOO8U00FUxBq3ItCrXSkd4JwaBY9dXXnnlyuiEMwhV0fSSttMBQkk7toPNEkC48MILw7HHHlvLomkPk9Lj+A4wASjYc889I4MgSrmDVfKiCiIBm5KddN2jRo2KDIIHKTqDUBAVrnY1HSBUu/+baT0A4Y477gg/+MEPosEXU8C91nXA9wADfM277LJLzMxIIi2MgViHZp7n15RHAopBoEWwSn7c84d9u8CNDhDKo+UlbokDhBJ3boeapoRKSp6kvPqsDpUpT9kXlXTJBqIBEPzMjg51RsGK0TZHdOiqq64Km2++eVhqqaWcQXCA0F9NHij5i61ZvZPy0muY4GyZfC7DpOcAob96WoSn22x49tAdpd/mffjw4bXxIVZBjEJVtrQVoS97XUfpDs/92c9+Fg9640THquiExyD0WuOafJ7NJW8NO5OZVjdaGaU+Ugy/vZ+VE1QpmcB0LZ9ZLRUdJDhAaFKhKn6ZfMnSd/7/61//Gp544ok4LtZff/0PqdMFFphPUr57odqKI3cUevDKK6+EJZdcspZNsQq64QAhp/ovA5+CA6qLP5RJTX5RAAAUqcCD0sum/lXueeutt8LSSy8dW8112saVUzE0rJYDhIYi8gsyJCBwzTHRjJPFFlssXlWV4DNXiuYkYI97fvnllyNAUOCqA4R/yHCloUPCiJEjmpNoF6+SsZw8eXJYbbXVwrrrrpt54I6u433mzJnh3XffDVtvvXWhjvdVGwQUEKsAgFVMUaacZEee8EUXXTS+Axp45x6ABOW999578cAasoERicsLYFHklwOEIvde/+qulSFzAy+2MzKWfEtj//okj0+2iZLYIss2R05zdBeDByn2VV/t/ltAwttvvx1ef/31aOSZxFZaaaUIBjDwUKUE0PB5m222id9z/zvvvBPfWRXhYuD3K664Iiy00EJh++23r0Vo97Whg3y4A4RBCrCitzMuANEkv8EIsH3NGYSKKsMAzRaDwCXMNePGjQvLLLNMZZgmdzHkdEzYrVhMYA899FC47rrrwsMPPxwTdey+++61nOCwAZxS+OSTT8ajjFFg3Ak33HBDmDdvXgQT3MP3F198cQQN7PEGBbOC+stf/hJWWWWVCBh45YE6s8FBA6F1Bwg5VeACVAu9f/bZZ+N4GDHi/xjSosflFED0hami5iHmYLY5+nHPH3adb3PMgQqnOxleeumlQJa3sWPHRkW98soro1Ffa621wp133hnefPPNMGHChOh6Afmecsop4bXXXgubbbZZWH311SPTQMpZyuVUstmzZ4enn346xiUAGDbccMPcIGNtQaMbUtrXAhgHCDlQ1AJWQRM/OQ/4bP3KeQDIBRRpKaus4Fben3nmmeheYO6tSqyKMwgFUuvnn38+GnjiKdiBAGuw3XbbxVUQEbbEIaDA48ePj+6E6dOnRyYBVwMMwtVXXx1WXXXV+D85xck3P2zYsHgNQOHII4/MjQ/WBmkqzkJMggOEAiltTqsKKGBV+MYbb0Qwveyyy9b8yg4QctppfaiWPe6ZBdfEiRPDiiuu6ADB8yD0QRsbPHLu3Llh2rRpERSAYB999NGw0UYbRfaANKAAhB133DHu1QUg8B00KoAA98KUKVNiljhem266aUTCvDNJPvjgg+GQQw7JzdZHuVi0I0P+4dQF4gxC/vS0CDWyMQgA5NGjR9fyILiLoQg92Js62lTLU6dOjfMliZI8SNGDFHujgS085cUXX4ysAS4DJjgYhbXXXjsafow9rALvMAxQpvfcc08MwiJCGx8rn5UPgV0gzz33XNhggw0CW72Icdh///0jg5CHtLLahsZkrd0bBJXRLjuBO0BoQYH80poExCAQ+IsRgFET+HQGwRVFErAMAgst5lcWX+5iKDhA0Ar0rrvumm+bYycGfxob0M5wSnMUNFMGCjpnzpwwdOjQiGD5n6xefHf//ffHrZ/s08WdgCHF7QCLwPcEKrLtEQaCe4nGffXVV+P9GF6uJXZBW70Gqk+r7W+nrTZBCSwIL1wmBFPSHgVUAhC22GKLGu2XMgxqB0YAQATAIpBTIKgT+tBM3/k1+ZKA9As3G5/Z2ZPlwspXrb02vZaA9IR35o6RI0fGPDJV2Q5byhgE0UJQh7NmzQp//OMfYw5t0F8nX80aviwj1Oy9WfVFWRsZNvntZTB1T2rcVU56fSM5NQMSbNkqT/c1qr/d5gmKJ8Dym9/8ZnSZ4GJZZ511wpAhQ+L2TgcIjXrLf8+SADoFC8cL0KmXuxhcX+zCQnPWz3/+83iIl8cgFHwXgwLceMc/T5Q+fiNyCNjEQ4MZBqkPSkrUjOEczHM7eW8jI93JZ7VTlk0XDUhgmyfbNBdffPEICggYYucGuR80aJ1BaEfS1buHcQpAwO2GnsGeCUQ7QKiePtRrsY1BeOSRR2KQ9yKLLOIxCEUPUlTHkkmRrX74jQjisz6lwQyDZoBA1jVaGdtnN7uqbra+zdSt2bK4bjDlpYCs1bIkL8DMvffeW4u3gEHYb7/9Yr9uu+22DhBa6VC/Nuo0cwGLB15LLLFEfK8Kdewq0JwEZC+Yx4gBI9gbJtqDFAseg4B7gUmAGASYA1ac+Bk79UoNXZaRr2f46xnJvK/o25Fdq4BAz9BqTgCD3RcnnHBC7E8CK2ENeGfb51ZbbeUAoZ3OqfA96BdzBAG6MAaf/vSnozSqEnxW4a5vqelaaKIvF110UXRv2i2xLRVWwItLGYOgwBI6lxgEsgViRDoJENK+LrvRH0zMRLOyqncdzyaLGe6FFVZYIZ68x+E67Npg0G655ZYOEAo4+fSzyoxX4lnI/8E8QbIxXlVZGfZT9kV6tmVAL7300rgw8W2OBY9BsPEAuBhYJeiwpk6s0gdaFbdTfrurbDvQ2nluPwZqq20Vk8C7Up2m2xw9SLEfPVnsZzLxE4NAkjE+r7nmmg4Qit2lXam9zmJgzmFLLGntWZhUhWkqLYOAtmBUinqaY1e0vYSFeh6EEnZqD5qkGAR2OAGutc2xKhN/D0RcikdYgHDfffeF4cOHR3dUVZgmBwilUOPqNsIBQnX7fjAtF0BgVchngs94eZDiYKRavnt13DMWnRFZAAAgAElEQVSA4LTTTvPjnv/RxX5YU/l0vZQtcoBQym7teqMABdrmiBFYb731fJtj16VevAfY455vuummeKAdboaqME3OIBRPZ73GRgJlBQhMTIorwYCxslU8Rr2AUZ1boa1ZTGJ8Vy9rpIJ5KS/d+2+345Y1LwAZRMkmyotDzvQqenttDBZtkr7Y+J+qUOSDnSw1DhhTBLWSwRX9cIBQ8G2OHoMw2KFRjPvLChBk5DWpDwQQ2K6nMysIoMLwWQMgAGANnyY+gY56va3fi2400/YJHOm4Z7u3vSgBvwP1mT0NVcYsDRB2kNB4jrPbHElbT0ItZxBKtouBbY7axdBYJfyKIkmgrABB1CbvGH3LHqQMAoAAAME7520ALsQc8L2YhSyAQF9btiLtez2rjAABYPXSSy9FeXHGRxkYBOlNPZBjv3eA0Hims5kUJ02aFGMQONemKrJzF0NjHfErciyBsgMEK3qtBO0kryAqMWasiAm8I/U01wkgpMF3lkHQM1IKmv+znpljdWi6arQNQPXUU0/FhEmjRo0qxXHPCr60boUULKTsUtNCq+CFNvMuuxhWX331sOiii7qLoeiplt3FUI3RXGaAwDkTMAL4PXmXqyAFCNJ13skaysmeJJQaNmxYTQmyovPFNAACMJIE7fGXbuPKw/HfndZmuRg4EZVVolItF31lKOAnVki+c77nDAHpitpZdHdKp/UiLc+6GBiPCy+8cDwptyq7XZxB6LaGefldlUDRAIINDOTz22+/HU8UhOImOySf+R6Dde2118bVCtnb5CO3/mStFlkJM2nxP8cXk36ayWzPPfeM+/t1NDbGQM+fN29eTCAmupQyXnjhhQgwyCqIW0PXp64JXHakvKauZLVk9c319pVS2XJlqKxeGyYZTrVJhpL28hty5qXf7XuvQIOMumVyVG8MkgAdYFHyVN1sLImMGr8B/F5++eV4NDx7+HWibb3YE56hIDw9w/advc/KyIJUqzc8H93gXfVWzIy+o748l3NVbD/1WkfUBrXRxnFQl8mTJ8eMvNoSa8eF6tqPOndzgnWA0E3petldl0ARAYImSCYijPTtt98eV/ucMz9t2rQYCMVnJiROrtx7773jJM/ExCQLqOB3XpT13HPPRbfC6NGjY6Q1wAKDsNtuu9XoUCYzDiYiWp97oNYfeOCBmEEQcMLkzP9kq9x4440jsMA/T7mwEfxpIp87d248JfWNN94Im266aQQZXEf9BFRoF/XkPsAO5WsC7sfqS3W3AAVQ9Mwzz0TjtMYaa8wHEKS49BH17WYMhoCBDDt9Rz8st9xysa8Ac8gV99Gjjz4av0dfBPyyVr0WDHJi5cMPPxzBHCAhy+XA8wQ00TG1V2CF/uTFCloxMdQLXeCEQ1gngQvKt8aV69G3V155JeotdRDoQC8EfFJQ2k2ZZ01M1u2mdltXzQUXXBDGjRsX9Vx6oXvK6opzgNB1E+YP6KYEigYQ7OpOAWVMntOnT4/R0Uw+HEKFvxO6HwO2ww47xJMsMdxcc8cdd4Tdd989TlIY/alTp4Yll1wyggPe+Y6yoZSXX375uGrk/xkzZoTDDjssGh3AAOUAEPgfkHDPPffEyR8DwWmZnF4HI0E5Y8aMie+AkTlz5kQjgyHjeUyOZCTk1FTy1AMuAAcYNFgR6o1h0GTb6y1itH327NnxLA+7GuZ7gA3vGF3VD3mQvpuDeQQOuulmEROknSgYUjLA0u/I9ZZbbol1oZ7oAzIfOnRo7H9AAgbWup/QAww+oIL+BOiRUhpd4D4BNBk5/qcvuQ9doR78hvFW+3FbASBWW221qIN8D0vFCbmATgAC/Y3suI8yeLZ0HJCCjsM2sQrnWuqNrgi8aeVOvbm/mzLPmpOyAjxVJ+pKWwG7AsEWhPG5H8C3m3MrZTtA6LaEvfyuSqCIACGlYzEC119/fWQJdt1112isTjzxxLhawyBwnDV0/vjx4+Mkf/XVV4dDDz00TqwcRsbExUqeFR30PwldmKw4dW7llVeugQeAxLe+9a04ibOixGjCVnDOPas6DDyTPwBg5MiRNTCAAdhjjz2iEQBUYHwAEBgd7uE5XHPDDTfEazBgTJhM/k888URcdfG7gEGvAQKTPMbpnHPOiQBJBtBSytYYAc4AakSsy9/czdUs/agdKLxjqKkvzwSsYbSRN32Nsed/EjsBJPge3aAPCExFlwCc/KkvOJAK3eB3uZQAboAC2om+6RqAHcwQ5cAMAFYpB5YLXaRfAYG4oR5//PEaKOR/9EkuG3QV9ov24I5CT3g/6KCDInBAL9Aj9A5AQdm0G93k8DWASOq26upE8o/dPGI+1N92F8Njjz0WgTTjMsu94gCh2z3UoHzRPlCvKBCTW5YS6Tre/SyGPndalx9fBoDA6uTJJ58MrLKYHFmpn3rqqdFIM4kyqWMcAAr8xoryiCOOiKs89mYzsY4dOzbGEGBYmNBhH5jcMMzcw7W33npr+NrXvhZXbjwLAz9ixIgIFjAegAsm/wcffDBO7jARGCgmcJ7N6onnUTYZ5ZjUYRSGDBkSJ/orr7wyPg9/PitbjBDXb7/99vF7GeFeT6S0/be//W3gNL6f/OQntcN2FI+h1bdUFRcNzMnOO+8cjbGo726pslau1v8OdX/55ZfHvgSoUB8obow5wGDttdeO7Af9gqGmD3CT8BuAj75C/pQNgABY0I+AN0APjA73cx8gEoYAYAArwHX0H+/0MzoB+wSjhMuId+5D33gHUMES4YagnujTZz/72djnAA7cZgAa5Iqe3n333WGTTTaJoIH5GTYMAMIOAXQQfae8XjMI0gfYDdqh/+XKu+SSS6IuIzvtDuIaAANguNfAt1v6aMt1BqEXUvZndE0CRQMI1ihZoWCsAQlQ+RiFa665Jk7aTEQTJ06Mq3pAAgYdQHD44YfHCQkDjQx4EYOAsWACh8plgmdCh52AeQAYHHPMMdFosBqCsWBSxqCwWmQiB5DwHUwCgAIDieGBFsY4sfJjJUgZ1JPJUkwCoIKASlar1I3/uZYcJDxfwW/dBgii7GX4+R9WBYN7yimnzBdTkPqakaMFCKK7uxl8lgbDUQeMFP2BoQYEYEzPPvvs2K/8htwBaLgeFEsCSKNPiVNAjzBcMAn0Lyt55A9w4Hv6DkDAPQAEjDyAQXEj9B0MA30vgAAwhLEg/gQQCCCAuUKu9C96SbmU9ZnPfCautqmPQAALO8oD4H7xi1+MoIWA2n322SdMmTIl6gl1QtYAiG4DBMld41CsADoLG2LjVRg7jBkWpowJ5R2hzSxUqW+3gWTXJtEBCnaA0A+p+zM7JoEiAoS08RgpKF0mZCZjDDsTJcYeA0GcABMRxlm+fILUZAiZzDDKgAeMBwABY45xY2UDW8DEzQSmrY9QwYov4Ln8DtjgflZw1EFHITP5s/KkLOrBxM5KD2aCVSqGhefzTAAJIIMXZbCi5TvaIX92N3cFCIDpXQwjDAKG7Kc//el8UfpZigg4Qw677LJLlCGvbgIEgRRbFww6q3bkxmoaNocVrIIVofQBjMgW2WNc0RPcTcSr0LeAPAw+Rpr7KAuXAv2NvsEObbbZZhEkYNTROa6HFeBe/kenuAcjj5HkGdQLnQDQUi76hl6hh4ACAAsMAuUCIq644orIJnAfbMhDDz0UgQp1wDUCsKVvADvoC4Yb4NFNF4PGjgWI6mOYJuoAUKZ9+p4+sSBAsS3oNa5B9L2betKxSbOFghwgtCAsvzR/EigaQMiSIJMUkw8Tjs6al1+aSVlBhnzGR8uExGSv6He+47MiwhVNTrkYAYy6Vu/yv2v7mSLOtZrS1jPlRqC+PM+u5rhG50PYQC0b/KbVl32O3f7WrYnU0sKqI22AQbjsssviiXx2G19aD+4XQGDSF0DopearDVD4yBRjjBxhkQAAMAAAAww/fQtww0WE0eV/zpfgXv7nNwAc5QDo0CXFqvA7YBBwCEMBqFAeDHQJoAeTQBkYbl78z2cBQ8oGPPI9gJbvKQP3GCwD8oXFwHXB97hGKBcwSp1gFKgXMRDUBeBJ+61Lqhuy184Jla1xQX0vvPDC+HyAi44Bz9IT7oVtQB4TJkxwgNCNjmqlTI9BaEVa1bi2DABBgVB2NSMjIUOrCHe+t9Qn/8vw2h6333M9z9BeepVhjXu6krKBfHZyTCn5NIJefnRL2/Js65/tBYMg8KS2FhEg6EwNgTMMLMYVcAhwATQIgAn0aGUMUAAcAjj5jMxtHgIBQa16+V99p/6p1+8CstSPP7FDGHcxRwK6vFNvwIfqw/2KkVHAH8+3z6XN3WQQtHMCpgjZ2VwhAATACgBB9UtlIZ2GxYFBYUsxZXQL+PZrNncGoV+S9+d2RAJlAQgIw1LN1hDblbAVmlb/Cpiyq/Us2prrlZpZ99hgK01uutcadWs80rpaoCE6PivqX6Clm8FcPIPVMIGW+MtxyWBocDEUjUFQ/wrgIVsxPTaOQ2DS9oMFkbovBY3WmOmzBVa63va3gKPepZsCsLpWxl6GVEDN+v2lU9oOqfrzfcpadWSyMIUIIOA6gQWAyWDHBvrCdljcLPwPgyCd1u1W3gRcAhAItHQXQ6d7qcXynEFoUWAVuLxdgMBklBqqLKNqV8IDibPZe+tdp4lZk3m6yk4n63SFnzIO9epqwYYtU9erHvUo1VQeaRnp/zIQ6STbqPz0+qz2SJYpsIKu5mAdfOjkEsDvTWAduyyIQdCz06AyGSxcDKx4tSrM0oGUcUn7NQVbA7Ew1gBbI5kl61SeadstuLPGuh5gtNdYGcuQZ4GIRuMgbbt0IgUhWXK1yZYEcmzd07JtXWyfWGMuXcqSFbtFTjjhhLjbhvgK+px4j4022igCBLECWQwC35E7BHeOXAxlm3KdQShbj1asPc0ABCYGJh78ngRKkYKYVaadmLMmmnSSSUWbTroyMI0m0Kxy0ojqrLKbra8FGfYe1W8gGlTuDhmqrGdmGeZ6sqrXjlTeafsHAgSpIUvvJQCTHRjoBj5xAvHwKROcxy4GUdfpbgoLEKCe2eZog9TqGfnUgGWBBSt7a+RS49lMHwscZgG8gb4TI2FBhP3OglLVV8CT8aM//aZVuGJSdK2+V7/Ye6VfvGfdp3gayYHr9JfWybrmNMYbXaOyNEZwdbDLByaAerIdk5iPI488MgaHEh+RsmG2f7nPAcLQIWHEyBF9Nz3qGM+D0PeuyE0FWgEIRPMzoMk1gE86fdUznOn3mkizvm9UppiLRtdp1ZM+I52sUqahXsek19VrQ2qgspgW1c0+a6DyGrW12WcM9FwLUPCL42L43ve+F40LK0G2/WH0SUBlM+HZ4EsZNG1z3GmnnT6yi8EaR9s3dsWdGqn0upSlsaAsBXQ6REvGVHEH8v8rcJXv7Xf6Xt/Z3zGKMsQqn+v0jNTwiu5XDIGYN77Xd6o3v9nr+F/xBDpwjGvtvdJpgBt/tk9scK36X8+XXO3/Vpf0e9Z3Kosgy7POOism+QIc7LvvvnHxgL7AImTlN7AA2QFCCGElBwi5MYhekfkl0ApAEIOw//77x+1XvLIMbrsyzgIY6XdZVG89MNBsPQZiBFRGM9dkPa8eABmoHY0AQau/N5JD2jai5o877rjIGOFegAlgSx5xCDAI9LlYBNv/MuysKIn0ZwseOwe0C8SyKjKI6XeN6poCMAtssu5VXa2hlMHWtlEZYX0vg2iva3SPyrDvaRyDlXPqnmtkjNPr9T8yt7+l8kzHpx0r0sGU+bA6n15jywcIsb0TcEDMAem1YZrYlklKagADDEI6BhwghLCAH/fczFD3a/otgWYBApMBiWVwMRxyyCG11LbtGs4sA9lMWa0Y1izZpnR6KwxCVnn16tMMsGjGfdCMTDTpN6NLWfR9eh/b/8goiU+Z/fls7SM5D3vtyVBJnRR/kAIE5EtKavbos4JU6uB0FWoZk0afZdztiteC03orXF2j8kXh2/IEamRkebdsRpYhT/uknrHPkrUMrDW8A/VflstjoH5OAYLqqnbaZ6XG316TXpe2WSwJ/czuC7ZksmMBWbCLAcAAQNB39n4HCA4QmpmrmrrG0o12UtAgJukMATIoJBOSTr1LJwX+hzZkmxNBVIqyFSVnB5IGGYlLoA3Ze6xJQEFOUnLKtFHEXKeta3aVpIlU92Uh+6YE0uGLWgEIrCiRNQChWcNaz6hmGb5mJsNmrumwiGrFpXVuBA4GAgnN3juYtjRb33TyRudxJxBgJqZA2xwJXrTGNL2XdlkXg7YGZunLQOAn67dWrx+M7BrdW08PU8Pfiv4PBECbBYoD1XsgnUuBRVY5WfpkwZR+J6U1DAKuKR2z7gBhfok6g9BohDXxuxA/SkggC1tqWMXqhDu2YREtzV5aECx7b5nYyFzGNeQ0Z7IjI5kSdmC8yVvOC4TLdTyHCZCUn2TiY1KjXDLvQZNSnlYWOm1NW+K4FzqVSZHnEcVLUBcv7Zu3YIDPGqjdToXahIhjINrmm28eE8WklKjuF0gDIBC8dvDBB9f8nI0mrkaTkn1GM/UdyOi2cn+9a5utr8BfMxNpJ+rVqIx2GZm03Hrt1zZHZVK0q/60D22ipPRI5Ub60qidefjdyijL8NXT0XrsTVZ5rQLILAM/UN0GK8d6gIJ6CyBwDgUAgZcDBAcIg9W5j9wvw4QBxjBhlEknClhgCxb+LQKmyGRG9jOoLhRSgOCkk06KqU/ZqoVxI/0p2c8w5jAJX/nKV2I6UF7QYjyHPbnkOadM/K1EbnNAD/edfPLJ0RfLQT/kzMegQrFddNFFcbsOecbxzwMsoGNJ5wr7oBPZoFsBIewCUHKUjgutxQKbAQgUCUhrByC0WB2/PKcSIOc/KXSLkEkxpyIsfbUEas4///zIIAAQlAfBNt5dDO5i6MhgkJ8LQED+cTEDMAkYe3LXY3z5nmAoHb+KUYYJgClQ5jR+W3/99WOELcaeA1hwM5DSlJX8ueeeG32ugASilClXef1JBQorQLpTQMl5550XvvGNb0Tl5wASTnujHA6H4dnUhVzoJBABOZM8hLoQ1Y2R3XHHHWOdi8IgOEDoiDoXuhAHCIXuvp5U3gHCR8XseRC6qHpiEDDAHKCCUcWtAJWP0cZA41rge1wPMAgYY7J6AR6IsGXVjiGmLIw3TMQdd9wRGQeocg5pwc8Kg8BRpETnUz7PxJCTJx3KdNy4cTEhCCwGz/3hD38Y7wNoAEJgBmAmoOr5n9P7AA+URx35zKlyAB2QNdG+eaBbnUHoogKXqGgHCCXqzC41xQFChQECBk9JTxQboBWwAvWaCdBpVTdZzWNkWYFz0AopOTHe7MlXEg7eibyGcQAgYKwx1ATUwQTw0hnuGHFAAYaaY1oJbCTmgDSyuA1wXWDMeS7xCST94HQ12ASYB97Z9/ujH/0oujMIZOSQFRgGXA0Yf46LJTMYDIJcGAAcAAKAgj3ClJuHlwOEPPRC/uvgACH/fdTvGjpAqDhAsDsEtLq3p9dhoNPsaoNRWmUQowx8/TACMAAYaowtQYmAAFwQBBPyh1EHHOj4Xe7BGGPY+R6jjZHmXow3bAN1JpUsDANgBHaCY1c5HpYYBs5mhy34+c9/HlZdddX4DPaGwyRQL1wLgAKACcYfMMBzOOMcYIVrAtcGMQrUlbKpTx5eDhDy0Av5r4MDhPz3Ub9r6AChwgCB7HmsmG10LTsGAA0AA4LuFNnfSUXV83S8qHYT8H16WpkyrMlnrqh8u+0QZgDGQDn1VQ7vKttGaPPZ7p23ATYqQ+ecc50tm3qIbbE7BFSetoB1Ul6tluUAoVWJVfN6BwjV7PdWWu0AoeIAwboYEAWGkaxrrMIxdmkK1FaUK+taGVdbrs0tbtkKu8/aggqVy+/av60DTRQEyTWADQt+rLuEz/aoX2vgVTd7bC9ASclYLKDQFke5ZvKQC8EBwmC1tBr3O0CoRj8PppUOECoMEKDKYQtImwqtTg5ttrMQIMh2QrtCbjf4LmvvrwCBAIBcGxhkXtbwiwVQOTojnetsalKb7MiyBTLyul/PtslexGQo8FH10bG/dn+wZGKZCa7P2kPe7MDMklGz92ZdR9wEfTtQHgQxMr7NcTCSLva9AATidNI8CFmtSvMgtDsfFFti1at9FkBQHoRUGrrWz2IoyVkMGBGMID598gGQehX//JQpU2KiHcUfYJTTV5reVkbVXie2IDWAWfda0EAZKdNgy0/Lw8ALSOheXW+ZCgsuLEugduperhMjIOZADIXAgMrX/zK4qesirWuWTGxZqfzS/wWi9H2W3InhIO8D+5brJUpygFC9yT7VpZtvvjlwyNvxxx9f0xObltiyYYAJxsIuu+zykcOaqi3Jcrde8wuJkojxspkUNedqvpTrVsc977HHHpGFLhuYrMw2RwACAXw/+MEPwsUXXxy38uHPP/TQQ2NOAk0Q9fzqacdbl4CGjdgAO4yy7msmELJeWSmtn6WQcg9kPTutm72mHjOQVY6ekU4Z6bVpnnexJgPJSIxJM/ey5fOYY45xgFDuuXtQrWNy53THs88+u5b4Bj1lsmdrMb8TuCvdJAspB/fouGed2zCoSvjNuZeAFjTKpEjeGaVazprnuJ6AbphJAAIMtQOEPnazVqjtHPdMkCKGGdYA9uDMM8+M8QfHHntszCdgjxnN8q2nqTabpcqzrqunRJ1SrqyV9mCemee2EoPAZO4uhj4OzJw/WhO/2EHF68CAkWeEdwsQpO9ytzEf5CEpWM7FXPjqoQewljqsafTo0bXAdulEahtgEObOnRu3hdcDE0UWTGUYBNwIIDxNDgAFjvl89tlnw9e//vW4ipBfPmsySAFCs53erHHNWll34xmNymwWpNRrVzNAKot9aQVI2TY4QGjUo/67AIIkIV3DIMAqYhTYeizWzl7Pd80wfi7l4ktA/U5KbuLUSAbH7jbNV3ynnXDoBIAT+wG45AwbZxD6rAODYRBwMaiz7QobipF8AHQuuxqacTG0YvSbNXz2OhlZu5JJJzf9L19Ys4ZdqyLup/ys+5otq5E6ZDEZAkKdeoYDhEa94L+nBh+JAA4Y7yQJAyDgb9auIO3WsS63Tumr90Z+JaCYKiWPww2tk24BBByIRyI5MstanYJpUMr7sulJZRgEsg+yzdEaRu0GaEZl2+n4ZoGElE31sRkerSKirDZIhnozmdlAQ7s64rPdrqj/BQxs3oc0FmEgmTTbLgtimpGxvabZZzhAaFWy1bteumR1is/oP4m/eB82bFgUTFYMzWDYvepJu7gttnOnwKFAI79NnTo1ujNJX5/OpZpT27ETeZZYpQBCvS0r/e4g+b5I3ITrgwmL9MtkU+QzaZkJqOQwpoUXXjjSX7YtBFXBgshFQnsInAFQQJNZ9kGIWAqeGvEs+r/f8hno+Z4HIc+9k9+6CXgz5vgs/3HR9D+/Ei5HzQQkWWiRURZ3gnYrlA0MZPWYA4Qc6DFKiNEHCEBjcZ7CeuutF8aOHRtZDw5f4hhnTljEV8pxzKx4ABAACvbicjQzuzEAEFCmOugJ1wr/AyJQaO5B2d96663oVkHZuce6M4qk+A4QcqDABawC+o6LgbTkvNjWpjHgAYkF7NAuVVlb0il+xowZcV5mDq0KkHSA0CXFaqVYlPDpp5+ORp3zFTh7ge0zCpJZfPHFAysdDnTCqGPwORcBRSXI6pxzzonX4hsDRGD8OUsBtoATHQEUAAzABK4W2Inp06dH1oFnceaCYhMUqNVK/ft5rQOEfkq/uM9mzMHKEYMAS0cMglwJRQLIxe2BYtRccVS8k2Rr4sSJYYUVVnCAcOO10z5QF640dEgYMXJE33tUCL+dbY42BsE2JA+TAe3itMd58+bFIBhW+0THcuQzPlJSQWPcAQ2sdGAY2JUxZMiQ+JlMkOPHj497vdnOyaoIcACzsO+++8YDogAZMAcE3sBCsHriuZR75JFH1kSSlXug7x0/QAUcIOS5d/JbN1HHjB8+c1Aar6Lpf34lXI6ayRWFnbj//vvjAg7GtSp6UikGwfqOlF0wD3QiSjhr1qxo7DlREQYAV4MCp0aNGhV/Y88twGDOnDmR6gIs4BcjhSzbbGbOnBnveemll+LKiFMfv/SlL8V3gAPMA8wCKyf+ByRwNPQBBxxQWz1pkizK8HaAUJSeylc9GXOMBwAzc4C2rxWNQcuXVMtXG+1s4J15GTcu+uIAoWQMgs5iYGKgg3WCYR4AAsqHUSfWANqfQJgnn3wyMgjvvPNOXP2z0mdCg2GASSDLF+4Bvr/qqqtiWljSDkN/AQJgHTjCGZcDbATAAmAACkbJxZxwjDPZJG2a4jwcwtTsVOMAoVlJ+XVWAopBYGwwrkaM+JAhrcrE79rQnATkYuBq8iNss802cRdDVfSkMgyC8iDQ0TYgLw8AgfoQY8BkRc74119/PVJZbKn5/e9/H+68884YTMgkRjAiGSCJQUBRcUcQPDNmzJjoYiAW4YEHHohlARYACuR64D4OqnrmmWfiAVW//OUvIxDhe/xqikEoWtY4BwjNTXR+1fwSYMwxHv5/e+f3W1WVxfHdBzUR1BfQxAJt6bRKpTMEh4EpMGSGMPJjIITog2KMfwAQTYwJ8zBOghMncSbqA0EfFCs4mEkQUAo4VKCF8lNNjIlAMkIwTuKDCaDhh0+dfHZdh9XjueVWe8/Z5+51EnLL/XH2Onutvdd3r5+sJQACVjq5ygSQja+1nwHpf9Pd3e3Lb+OOsiDFOrQgkBEgJwdO7SjdSoWRai92N0YQcyc0ETCFQAJcpAW1dGkU05Y0U2Ijk4ZGUtxF5+0yQhoAcX8CInFXIOQAi7a2tmECT/xCWS4DCGXhVFh0SgwCpZa5CPjlMhdDWHwqmhqRE+jAysvhCj1iAKEOAALKEr88m4BYEFConMo5SWN+DwEgiFKXxSDxEdJtTvxg+mSjgyt1kQ6xjshmJ//Xr8wHMTcl+74AAA8hSURBVA34XSdOnJgUU5LxNajQ90vfU/6vrTKV3sv6baXFXylwNP1s/N4AQtFbaDnHF1BOYDDra8KECf5BYjEdl5Nr+VMtQYq8EtdF11iywAwglBggiMLlleA/TOyAAV4J8CPFj7oDGzZsGFYDQBTtWIihdmPI/bLeS3+mlaBYBfiOVFkU5Sm+sSxlqgGDfhaxRMhv5J7yyu80CMkCByPNTXr+shR6pTkeaW5Gmj+rpDgW0hrfPZA3YnKI9cGqRnCwyH8ImU3xcSTMJ9ZBiqSTL1myxNIcsbSVOc1Riluw4CU7AH87QXwE9FFlcPXq1e6xxx5Lyi/LKVhMjGmEqIP4RJSzviO+fPmOPpFoxZ0+qci9dD2C9EaladMKNa3U5d5pi4OmN2szlPc0MJGT/2gRs6YvPSfVbMAyV/o+WZaSd955x1uHrJtjmBtsqFQhSwCDCxcuePAtGUNiRQiVbqMr3xmQ/QcZodRyV1eXj/0a7X6YL9VjN1pdBimmLQgUGPr666+9OZrIfk4OgINZs2ZldmrTyluUWTWv6e9o5ZoGFWkB07/VCjRr3CzgkP6Nvn819670HXmGrNebfaafOS2yWfRmibU8h4AWbYHgMzpywktqQmSBOLknMgEwpCYE7b3FjVINWBm75WZ3CmUGxMVAkC8Xue1Z6zUUeo2OYmZAAALWV4LHqSFjpZbrxIKASA0MDHjXAlH/pP/19vb6dELqBqxbt85bEDRKlL4IYlHgNR34J+Z9MT/J/3nNek9/LhuTvCfj6N/p97K+J/RWoqPSM6THEEuLLD2hX89H2iWQtgboeapW2WbdcyRwoD8T2uQ9Mjyeeuop7xs0gFDMJlrGUcWCQDwSf5PxI5dlMZSRo7WhWe+F6A+yvqzUcgogTGme4tqnhVFJEYZRSRGTIKlJRNynFZNW6AQpAhBIGeS7VBkkBoECQ2vXrv1RRKooSW3yl/ulTfT6hCyKU5vBs5SnVvhyv6z3BJjoU43+nmxiWmHKPGQ9Q6X3NL1Z99LPoIGE/m4axOjfpBW6fFbp93oe099J08Ln5CZTRZKiUQYQarNJ1uNdkR1qoVCGXMcgiBuvHp/Znmn0M6APVaSGU2/GSi0719C7d78qtTw5CIAgihqAQGpeZ2dnJkDQJ3bJYqByoDQl4nMAApHLdloYWjTVgAMNQDQ4qvT7NDjIsj5UshxkvZ9Fo2UxjH7Ts18MyTvAgEJhmI+pHyLgoFpLmM1j/c+AdldjrZw+fbovXBdLDMJA3xF3/dr1HzF6eJBi8xR3XwAWBDGJc2oUCwK+5DSzdNogZiHS+rAgABBs8dfXojaAUF/8zOtpAAgAA7KZuEhdE2udHRry4kL44wiQRG9gfSZA0eogONfwn54PEgsCLob7Ou4vnJtpgKAtCFrxizkdgkF91Fs3gFA4+2pCgAGEmkxr3d+UPYJg5S+//NLHDWGRFHebAYS6Z/+oHhBLE7Kxd+9eny4fUxbD4YOH3fUfAnn1pDXs2dWTAISmlmbX0dkxqkmtxZe1i4E+BZQezopBkNMBoIGOhlzU0JYCF7Wgze5ZzAwYQChm3ss+qgAE6qKgADhsiAXBrIxl5+7Y0a/d1W+99ZZbvHhxVKWWD/UedNeuDmX6VAYIU5tdx/TiAYIwi1Q10hZvu+22TJeB9nUTpUw/AkoKi2lo7MTH7lT0DGzbts3Nnj3bpznibpI4BV4lNRJ5AFxSYpqslscff9wDS1EIRT+DjZ//DIjp+Ntvv/VyIqWWrZJi/rwIeUQNEEiTpkFeTC6GQ/sP+n4/PwIIH+7rTSwIk5omu/b72wvno2z+5KNSF5sGR8JA6TFAhCmWAlEWLPiWlhYfkBhCY6bCJ7HOCKB4CTEmlI2W3hUiExog8B7fQwZWrlyZyILJRJ0JRJWPIwCBbqkASALPBFSaBaHKSYzgaxogcMAgmJW9JpYgxaN9A17PVgQITNBk0hwDAAhZ8igMBOVgAlq0aJEHBHYSiGD1Oud7atCRD3+ybPAEn1FCF8sRl/iWARDNzc1J1TwWuQGEOOQk/ZTaxYC8EJ0uFiUDCHHKxEj6BXnZsmWLdzFI/5oY5OSmAAHT7JSWpmABAkzFekDrVk6Tc+bM8TnxsSC82JeyzliRXhPMyTPPPONeeuklPz18B3lI96IARFpAWpwSZEGKcfL9pzy1BCn29PS4uXPnRhWkWBVAmNw0OYgshkoIj40fJSBpKLfffrsBhJ+yEkr4G91MRQOANWvWuE2bNiVNrsSSoB/RiuKUkOFjRLIEMpPhxN86gNlA4xhNch3cRuSERyHujQwGiX2L2oJAoSQmAH//A50PuOm/GoryDe2SEyQm5iNHjnhT4T333GMAITRG1YgeXemMv6VF9meffZZEposbQVwNEsRqVqYaMaUEt5UYBCmURLMvLnNNloB5OZKoq/KSMk+p5ZgKJVW0IPyr++1BUDXdEBf8foFbtPiPObKl+qEkBoGTAKUwacdJTrNt/tXPYdm/KcGrovixJOzfv9/Ho6TlII36YzgFlJ2/taAfmbFSy7WY2fq6pz6AvP76627p0qVRlVquCBCef27D4NTWVnfs6FG3ctVK94dFC4PkvAAEFvtHH33k2tvbo/IRBcmUgonCZ/jII4/4Pg0SuCinw4JJs+EDmQGxIHzzzTdeRqirwmUHi0AYFAgZcvjg0PHJJ5/42jt33HFHNHJSESD87a/PD5IyePbMGbdi5Qr32/lzA2HZcDJ0miM1DzD/xJSGEiRTCiYKgPDKK6/4bp2y4ZvpuGCmBDa8+Jat3XNgjAmMHA0Q0C+0e7711lsNIDz3578MYqr//PPP3bI/LXVdv5sXGOuGyBGAQBbDe++950th4k+0k0CQ7MqFKND+6dOn3bRp05JToQWe5TL1pRlELAiUWkZe6O0il8lKadhYc0IFIPD6/vvvu66urqgs1BUtCP/8+z8G29rb3Bf//cIHKYYagyBBJJwEuru7vd+ZxW4AoeZrJ9gB2PBffvll9/TTT/ssBglStHiDYFmWO2ESg0ANDSxOUgfBLE25syLoAXWWFHV2HnroIV9NMRb9UhEgvPvv7YPjxo13165edZOmTHIP/ubXQTKShQ4TWeQsdipd3XXXXdEwMEimFEwUAIFqibt27RoWg2AAoWDGBDS8uBgotcz+gWuSywBCQEwKgBTRL7yiX7BOS1fgGPaTigDhg569Ps3RDTa4KS20ey6+m2OWvMhCRylcuHDBpzjGFEQSwBoKjgRkgQDFhx9+eBhQjGFBB8eMQAkSF8N3333nKeRQwWW1MQJlWEFkiZwgF6JfYqqzM9B3xF27ntGLYd+efaqbY1NStrYgPo04LAoBFwOlMHExTJ061SwIITIqJ5o4EZ49e9anu+pSygYQcmJACYZh4yduiW6O7B90c5Q6GRaDUAIG5kgi8oFsbN261bsYYqqzc7ifds8ZvRj27VUAoanJ3R+wBUEWO6fGefPm+c5+ZirMcQUFNhQL+tlnn3UvvvhiciqU02FgpBo5Bc2AxCDQoQ95IX1NUmINSBbElACHlSB4SNu+fbtbsGCBD1KMRb94gJDVrKlsAIFFfvHiRe9eiKkUZoBrqnCSkIUnnnjCW5T421o7F86S4AjQaY5YmWjhaxaE4NhUOEECELBKXrp0yesX0hxjOXBUBAg9u3sSF0NzS7Pr6OgonFlZBOhCSR9//LE3K5OrGgvCC5IpBRPFYj58+LCbP3++BSkWzItQh08XSsJszGX7RqgcK4YubUFAv1CIjwrDschJf3+/d9+nr4ad776bAISpv2h1nZ2/LIZDNxlVGEipZZrzLF++3DMxljSUIJlSMFFktJw8edLNmjUr6dZobZ0LZkpgwwMi6d9y5swZnwE1c+bMhEKLQQiMWQWSoy0Ir732ms+OiinN8cPe/e5qFkA4dOBAAhDundTo2traC2TTyENTZpl/p06d8sGU9Os2gBAsu2pOGBv+qlWr3I4dO5I6CCYPNZ/2Ug0gMQg0a+KiaqxcBiZLxcqaE4tu4aKUP/rlzjvvjMaCcPzYsewYhL5DBxOA0Ng4ybWqSmM158goBpA8VU4E1FUnXQl/oimEUUxinX2VuIP169e7F154wT+ZBJ3ZybDOGP0zHkf2DQKw+FuXZ7cgxZ8xsXX2U4lVQSZEv8RUavnkiRPu++8zshjKAhCkkiILfffu3W727NmuqalpmGKoM5m1x7nJDAAQaFNO8ZtbbrklkQXb+E10ZAbEgpAutRyLb9kkoboZEP3C6549e9ycOXOislAfPTrgLl+65A/dWNZkD23o7zt0w8XQ2OhaW2/UKq9uavP5lviICKR49dVX3bJlyywGIZ+pD3YUAMLmzZvdk08+mcQgQKxZEIJlWe6ECUCgZwfyMmPGDMtiyJ0L4Q+ogxSJQSDGjRiEWIDkrp073Fdf/c8H/9/IDnSuob+/7wZAuBeA0BokN4WB+J3Pnz/vmUeUqbkYgmRXLkQhCwsXLnQHDhwY1ovBAEIu01+KQcR0nK6kaECyFOzLjUjkhAsQSc0MYlVicmFvfuMNX0lx4oSJvv7DkBWhhAABBkq755gYmNtKKdFAAISdO3e6FStWJEg/FsRfIjYVSqqugwAh1NfnsoNFoWwJbnANEGJs9/z21i0eGOGqpaEZh2+/TspmQSAG4c0330xKLZtCCG6t5UYQ/sJz5875kttW/Ca3aS/VQOJikG6OlFqWyyxNpWJlTYkVgMAr+mXJkiVRlVomzfHTTz91V65cdTMfnOnGjxs3BKLLBhCIQaAdJ6bllpYWXz3PgtJqunaCvTnWpDVr1riNGzd60yBmMRa4pa8Fy7JCCCN9TQMEUQYGEAphR5CD6joI9GKg18/dd98djX45eeK4u3LliueNrIvSAQROjPyjdSudtkhDMQtCkOstF6IogPPoo4+6bdu2JWWWtYDnQoQNEvQMyMZPwyb+lvK5OlI76Acw4nKZAUmH5RX9gisKGYlFTk4cP56d5lg2CwJKgSBFgkgoZCH+xFykyAYJagYAi319fb6xilxmQQiKRYUTIzEIly9f9rSQEmvuqMLZEhwBAiSxRKJfGhsbh9XMCI7gMSbo+PFj7vusZk3jx49PshjK0iMdxWDmwTGWkJLeTlwLJSXfyM5pBsStYO7InCa8xMPEqF/YR90PmRyadf8H2IRQ+nJEHCQAAAAASUVORK5CYII=;" vertex="1" parent="1">
          <mxGeometry x="154" y="310" width="520" height="288" as="geometry" />
        </mxCell>
      </root>
    </mxGraphModel>
  </diagram>
</mxfile>
